<mxfile host="app.diagrams.net" modified="2020-11-13T19:40:13.355Z" agent="5.0 (Windows NT 6.1) AppleWebKit/537.36 (KHTML, like Gecko) Chrome/86.0.4240.193 Safari/537.36" etag="LkwYDXmiuONYgCdiG8CO" version="13.9.7" type="github">
  <diagram id="8R-O8yoFd45po1v08qaF" name="Страница 1">
    <mxGraphModel dx="1066" dy="555" grid="1" gridSize="10" guides="1" tooltips="1" connect="1" arrows="1" fold="1" page="1" pageScale="1" pageWidth="827" pageHeight="1169" math="0" shadow="0">
      <root>
        <mxCell id="0" />
        <mxCell id="1" parent="0" />
        <mxCell id="i8wJTRRKYK57xuwCyLoE-1" style="edgeStyle=none;rounded=0;orthogonalLoop=1;jettySize=auto;html=1;exitX=1;exitY=0.5;exitDx=0;exitDy=0;entryX=0;entryY=0.5;entryDx=0;entryDy=0;endArrow=none;endFill=0;" parent="1" source="i8wJTRRKYK57xuwCyLoE-7" target="i8wJTRRKYK57xuwCyLoE-14" edge="1">
          <mxGeometry relative="1" as="geometry" />
        </mxCell>
        <mxCell id="i8wJTRRKYK57xuwCyLoE-2" style="edgeStyle=none;rounded=0;orthogonalLoop=1;jettySize=auto;html=1;exitX=0;exitY=0;exitDx=0;exitDy=0;entryX=0.75;entryY=1;entryDx=0;entryDy=0;endArrow=none;endFill=0;" parent="1" source="i8wJTRRKYK57xuwCyLoE-7" target="i8wJTRRKYK57xuwCyLoE-45" edge="1">
          <mxGeometry relative="1" as="geometry" />
        </mxCell>
        <mxCell id="i8wJTRRKYK57xuwCyLoE-3" style="edgeStyle=none;rounded=0;orthogonalLoop=1;jettySize=auto;html=1;exitX=0.5;exitY=1;exitDx=0;exitDy=0;endArrow=classic;endFill=1;fillColor=#dae8fc;strokeColor=#6c8ebf;" parent="1" source="i8wJTRRKYK57xuwCyLoE-7" target="i8wJTRRKYK57xuwCyLoE-74" edge="1">
          <mxGeometry relative="1" as="geometry" />
        </mxCell>
        <mxCell id="i8wJTRRKYK57xuwCyLoE-4" style="edgeStyle=none;rounded=0;orthogonalLoop=1;jettySize=auto;html=1;exitX=0.75;exitY=1;exitDx=0;exitDy=0;endArrow=classic;endFill=1;fillColor=#d5e8d4;strokeColor=#82b366;" parent="1" source="i8wJTRRKYK57xuwCyLoE-7" target="i8wJTRRKYK57xuwCyLoE-77" edge="1">
          <mxGeometry relative="1" as="geometry" />
        </mxCell>
        <mxCell id="i8wJTRRKYK57xuwCyLoE-5" style="edgeStyle=none;rounded=0;orthogonalLoop=1;jettySize=auto;html=1;exitX=0.25;exitY=0;exitDx=0;exitDy=0;endArrow=classic;endFill=1;fillColor=#f8cecc;strokeColor=#b85450;" parent="1" source="i8wJTRRKYK57xuwCyLoE-7" target="i8wJTRRKYK57xuwCyLoE-80" edge="1">
          <mxGeometry relative="1" as="geometry" />
        </mxCell>
        <mxCell id="i8wJTRRKYK57xuwCyLoE-6" style="edgeStyle=none;rounded=0;orthogonalLoop=1;jettySize=auto;html=1;exitX=0.75;exitY=0;exitDx=0;exitDy=0;entryX=0.25;entryY=1;entryDx=0;entryDy=0;fillColor=#d5e8d4;strokeColor=#82b366;" parent="1" source="i8wJTRRKYK57xuwCyLoE-7" target="i8wJTRRKYK57xuwCyLoE-89" edge="1">
          <mxGeometry relative="1" as="geometry" />
        </mxCell>
        <mxCell id="i8wJTRRKYK57xuwCyLoE-7" value="рулонные шторы" style="rounded=1;whiteSpace=wrap;html=1;" parent="1" vertex="1">
          <mxGeometry x="700" y="550" width="120" height="30" as="geometry" />
        </mxCell>
        <mxCell id="i8wJTRRKYK57xuwCyLoE-8" style="edgeStyle=none;rounded=0;orthogonalLoop=1;jettySize=auto;html=1;exitX=1;exitY=0.5;exitDx=0;exitDy=0;entryX=0;entryY=0.5;entryDx=0;entryDy=0;endArrow=none;endFill=0;" parent="1" source="i8wJTRRKYK57xuwCyLoE-14" target="i8wJTRRKYK57xuwCyLoE-18" edge="1">
          <mxGeometry relative="1" as="geometry" />
        </mxCell>
        <mxCell id="i8wJTRRKYK57xuwCyLoE-9" style="edgeStyle=none;rounded=0;orthogonalLoop=1;jettySize=auto;html=1;exitX=0.5;exitY=1;exitDx=0;exitDy=0;endArrow=classic;endFill=1;fillColor=#dae8fc;strokeColor=#6c8ebf;" parent="1" source="i8wJTRRKYK57xuwCyLoE-14" target="i8wJTRRKYK57xuwCyLoE-74" edge="1">
          <mxGeometry relative="1" as="geometry" />
        </mxCell>
        <mxCell id="i8wJTRRKYK57xuwCyLoE-10" style="edgeStyle=none;rounded=0;orthogonalLoop=1;jettySize=auto;html=1;exitX=0.75;exitY=1;exitDx=0;exitDy=0;endArrow=classic;endFill=1;fillColor=#d5e8d4;strokeColor=#82b366;" parent="1" source="i8wJTRRKYK57xuwCyLoE-14" target="i8wJTRRKYK57xuwCyLoE-77" edge="1">
          <mxGeometry relative="1" as="geometry" />
        </mxCell>
        <mxCell id="i8wJTRRKYK57xuwCyLoE-11" style="edgeStyle=none;rounded=0;orthogonalLoop=1;jettySize=auto;html=1;exitX=0.25;exitY=0;exitDx=0;exitDy=0;entryX=0.75;entryY=0;entryDx=0;entryDy=0;endArrow=classic;endFill=1;fillColor=#f8cecc;strokeColor=#b85450;" parent="1" source="i8wJTRRKYK57xuwCyLoE-14" target="i8wJTRRKYK57xuwCyLoE-80" edge="1">
          <mxGeometry relative="1" as="geometry" />
        </mxCell>
        <mxCell id="i8wJTRRKYK57xuwCyLoE-12" style="edgeStyle=none;rounded=0;orthogonalLoop=1;jettySize=auto;html=1;exitX=1;exitY=0;exitDx=0;exitDy=0;endArrow=none;endFill=0;" parent="1" source="i8wJTRRKYK57xuwCyLoE-14" target="i8wJTRRKYK57xuwCyLoE-69" edge="1">
          <mxGeometry relative="1" as="geometry" />
        </mxCell>
        <mxCell id="i8wJTRRKYK57xuwCyLoE-13" style="edgeStyle=none;rounded=0;orthogonalLoop=1;jettySize=auto;html=1;exitX=0.5;exitY=0;exitDx=0;exitDy=0;entryX=0.5;entryY=1;entryDx=0;entryDy=0;fillColor=#d5e8d4;strokeColor=#82b366;" parent="1" source="i8wJTRRKYK57xuwCyLoE-14" target="i8wJTRRKYK57xuwCyLoE-89" edge="1">
          <mxGeometry relative="1" as="geometry" />
        </mxCell>
        <mxCell id="i8wJTRRKYK57xuwCyLoE-14" value="День ночь" style="rounded=1;whiteSpace=wrap;html=1;" parent="1" vertex="1">
          <mxGeometry x="840" y="550" width="70" height="30" as="geometry" />
        </mxCell>
        <mxCell id="i8wJTRRKYK57xuwCyLoE-15" style="edgeStyle=none;rounded=0;orthogonalLoop=1;jettySize=auto;html=1;exitX=1;exitY=0.5;exitDx=0;exitDy=0;entryX=0;entryY=0.5;entryDx=0;entryDy=0;endArrow=none;endFill=0;" parent="1" source="i8wJTRRKYK57xuwCyLoE-18" target="i8wJTRRKYK57xuwCyLoE-22" edge="1">
          <mxGeometry relative="1" as="geometry" />
        </mxCell>
        <mxCell id="i8wJTRRKYK57xuwCyLoE-16" style="edgeStyle=none;rounded=0;orthogonalLoop=1;jettySize=auto;html=1;exitX=0.75;exitY=1;exitDx=0;exitDy=0;endArrow=classic;endFill=1;fillColor=#d5e8d4;strokeColor=#82b366;" parent="1" source="i8wJTRRKYK57xuwCyLoE-18" target="i8wJTRRKYK57xuwCyLoE-77" edge="1">
          <mxGeometry relative="1" as="geometry" />
        </mxCell>
        <mxCell id="i8wJTRRKYK57xuwCyLoE-17" style="edgeStyle=none;rounded=0;orthogonalLoop=1;jettySize=auto;html=1;exitX=0.75;exitY=0;exitDx=0;exitDy=0;entryX=0.797;entryY=1.014;entryDx=0;entryDy=0;entryPerimeter=0;fillColor=#d5e8d4;strokeColor=#82b366;" parent="1" source="i8wJTRRKYK57xuwCyLoE-18" target="i8wJTRRKYK57xuwCyLoE-89" edge="1">
          <mxGeometry relative="1" as="geometry" />
        </mxCell>
        <mxCell id="i8wJTRRKYK57xuwCyLoE-18" value="Готовые рулонные шторы" style="rounded=1;whiteSpace=wrap;html=1;" parent="1" vertex="1">
          <mxGeometry x="940" y="550" width="160" height="30" as="geometry" />
        </mxCell>
        <mxCell id="i8wJTRRKYK57xuwCyLoE-19" style="edgeStyle=none;rounded=0;orthogonalLoop=1;jettySize=auto;html=1;exitX=1;exitY=0.5;exitDx=0;exitDy=0;endArrow=none;endFill=0;" parent="1" source="i8wJTRRKYK57xuwCyLoE-22" target="i8wJTRRKYK57xuwCyLoE-27" edge="1">
          <mxGeometry relative="1" as="geometry" />
        </mxCell>
        <mxCell id="i8wJTRRKYK57xuwCyLoE-20" style="edgeStyle=none;rounded=0;orthogonalLoop=1;jettySize=auto;html=1;exitX=0.25;exitY=1;exitDx=0;exitDy=0;endArrow=classic;endFill=1;fillColor=#dae8fc;strokeColor=#6c8ebf;" parent="1" source="i8wJTRRKYK57xuwCyLoE-22" target="i8wJTRRKYK57xuwCyLoE-74" edge="1">
          <mxGeometry relative="1" as="geometry" />
        </mxCell>
        <mxCell id="i8wJTRRKYK57xuwCyLoE-21" style="edgeStyle=none;rounded=0;orthogonalLoop=1;jettySize=auto;html=1;exitX=0.75;exitY=1;exitDx=0;exitDy=0;endArrow=classic;endFill=1;fillColor=#d5e8d4;strokeColor=#82b366;" parent="1" source="i8wJTRRKYK57xuwCyLoE-22" target="i8wJTRRKYK57xuwCyLoE-77" edge="1">
          <mxGeometry relative="1" as="geometry" />
        </mxCell>
        <mxCell id="i8wJTRRKYK57xuwCyLoE-22" value="Горизонтальные Венус" style="rounded=1;whiteSpace=wrap;html=1;" parent="1" vertex="1">
          <mxGeometry x="1117" y="550" width="160" height="30" as="geometry" />
        </mxCell>
        <mxCell id="i8wJTRRKYK57xuwCyLoE-23" style="edgeStyle=none;rounded=0;orthogonalLoop=1;jettySize=auto;html=1;exitX=1;exitY=0.5;exitDx=0;exitDy=0;entryX=0;entryY=0.5;entryDx=0;entryDy=0;endArrow=none;endFill=0;" parent="1" source="i8wJTRRKYK57xuwCyLoE-27" target="i8wJTRRKYK57xuwCyLoE-31" edge="1">
          <mxGeometry relative="1" as="geometry" />
        </mxCell>
        <mxCell id="i8wJTRRKYK57xuwCyLoE-24" style="edgeStyle=none;rounded=0;orthogonalLoop=1;jettySize=auto;html=1;exitX=0.25;exitY=1;exitDx=0;exitDy=0;endArrow=classic;endFill=1;fillColor=#dae8fc;strokeColor=#6c8ebf;" parent="1" source="i8wJTRRKYK57xuwCyLoE-27" target="i8wJTRRKYK57xuwCyLoE-74" edge="1">
          <mxGeometry relative="1" as="geometry" />
        </mxCell>
        <mxCell id="i8wJTRRKYK57xuwCyLoE-25" style="edgeStyle=none;rounded=0;orthogonalLoop=1;jettySize=auto;html=1;exitX=0.5;exitY=1;exitDx=0;exitDy=0;endArrow=classic;endFill=1;fillColor=#d5e8d4;strokeColor=#82b366;" parent="1" source="i8wJTRRKYK57xuwCyLoE-27" target="i8wJTRRKYK57xuwCyLoE-77" edge="1">
          <mxGeometry relative="1" as="geometry" />
        </mxCell>
        <mxCell id="i8wJTRRKYK57xuwCyLoE-26" style="edgeStyle=none;rounded=0;orthogonalLoop=1;jettySize=auto;html=1;exitX=0.25;exitY=0;exitDx=0;exitDy=0;fillColor=#e1d5e7;strokeColor=#9673a6;" parent="1" source="i8wJTRRKYK57xuwCyLoE-27" target="i8wJTRRKYK57xuwCyLoE-92" edge="1">
          <mxGeometry relative="1" as="geometry" />
        </mxCell>
        <mxCell id="i8wJTRRKYK57xuwCyLoE-27" value="Горизонтальные Стандарт" style="rounded=1;whiteSpace=wrap;html=1;" parent="1" vertex="1">
          <mxGeometry x="1290" y="550" width="160" height="30" as="geometry" />
        </mxCell>
        <mxCell id="i8wJTRRKYK57xuwCyLoE-28" style="edgeStyle=none;rounded=0;orthogonalLoop=1;jettySize=auto;html=1;exitX=1;exitY=0.5;exitDx=0;exitDy=0;endArrow=none;endFill=0;" parent="1" source="i8wJTRRKYK57xuwCyLoE-31" target="i8wJTRRKYK57xuwCyLoE-35" edge="1">
          <mxGeometry relative="1" as="geometry" />
        </mxCell>
        <mxCell id="i8wJTRRKYK57xuwCyLoE-29" style="edgeStyle=none;rounded=0;orthogonalLoop=1;jettySize=auto;html=1;exitX=0.25;exitY=1;exitDx=0;exitDy=0;entryX=0.75;entryY=0;entryDx=0;entryDy=0;endArrow=classic;endFill=1;fillColor=#d5e8d4;strokeColor=#82b366;" parent="1" source="i8wJTRRKYK57xuwCyLoE-31" target="i8wJTRRKYK57xuwCyLoE-77" edge="1">
          <mxGeometry relative="1" as="geometry" />
        </mxCell>
        <mxCell id="i8wJTRRKYK57xuwCyLoE-30" style="edgeStyle=none;rounded=0;orthogonalLoop=1;jettySize=auto;html=1;exitX=0.25;exitY=0;exitDx=0;exitDy=0;fillColor=#dae8fc;strokeColor=#6c8ebf;" parent="1" source="i8wJTRRKYK57xuwCyLoE-31" target="i8wJTRRKYK57xuwCyLoE-88" edge="1">
          <mxGeometry relative="1" as="geometry" />
        </mxCell>
        <mxCell id="i8wJTRRKYK57xuwCyLoE-31" value="Вертикальные 89" style="rounded=1;whiteSpace=wrap;html=1;" parent="1" vertex="1">
          <mxGeometry x="1490" y="550" width="110" height="30" as="geometry" />
        </mxCell>
        <mxCell id="i8wJTRRKYK57xuwCyLoE-32" style="edgeStyle=none;rounded=0;orthogonalLoop=1;jettySize=auto;html=1;exitX=1;exitY=0.5;exitDx=0;exitDy=0;entryX=0;entryY=0.5;entryDx=0;entryDy=0;endArrow=none;endFill=0;" parent="1" source="i8wJTRRKYK57xuwCyLoE-35" target="i8wJTRRKYK57xuwCyLoE-38" edge="1">
          <mxGeometry relative="1" as="geometry" />
        </mxCell>
        <mxCell id="i8wJTRRKYK57xuwCyLoE-33" style="edgeStyle=none;rounded=0;orthogonalLoop=1;jettySize=auto;html=1;exitX=0.25;exitY=1;exitDx=0;exitDy=0;endArrow=classic;endFill=1;fillColor=#d5e8d4;strokeColor=#82b366;" parent="1" source="i8wJTRRKYK57xuwCyLoE-35" target="i8wJTRRKYK57xuwCyLoE-77" edge="1">
          <mxGeometry relative="1" as="geometry" />
        </mxCell>
        <mxCell id="i8wJTRRKYK57xuwCyLoE-34" style="edgeStyle=none;rounded=0;orthogonalLoop=1;jettySize=auto;html=1;exitX=0.25;exitY=0;exitDx=0;exitDy=0;entryX=0.588;entryY=1;entryDx=0;entryDy=0;entryPerimeter=0;fillColor=#dae8fc;strokeColor=#6c8ebf;" parent="1" source="i8wJTRRKYK57xuwCyLoE-35" target="i8wJTRRKYK57xuwCyLoE-88" edge="1">
          <mxGeometry relative="1" as="geometry" />
        </mxCell>
        <mxCell id="i8wJTRRKYK57xuwCyLoE-35" value="Вертикальные 127" style="rounded=1;whiteSpace=wrap;html=1;" parent="1" vertex="1">
          <mxGeometry x="1620" y="550" width="110" height="30" as="geometry" />
        </mxCell>
        <mxCell id="i8wJTRRKYK57xuwCyLoE-36" style="edgeStyle=none;rounded=0;orthogonalLoop=1;jettySize=auto;html=1;exitX=0.25;exitY=1;exitDx=0;exitDy=0;endArrow=classic;endFill=1;fillColor=#dae8fc;strokeColor=#6c8ebf;" parent="1" source="i8wJTRRKYK57xuwCyLoE-38" target="i8wJTRRKYK57xuwCyLoE-75" edge="1">
          <mxGeometry relative="1" as="geometry" />
        </mxCell>
        <mxCell id="i8wJTRRKYK57xuwCyLoE-37" style="edgeStyle=none;rounded=0;orthogonalLoop=1;jettySize=auto;html=1;exitX=0.25;exitY=1;exitDx=0;exitDy=0;endArrow=classic;endFill=1;fillColor=#d5e8d4;strokeColor=#82b366;" parent="1" source="i8wJTRRKYK57xuwCyLoE-38" target="i8wJTRRKYK57xuwCyLoE-77" edge="1">
          <mxGeometry relative="1" as="geometry" />
        </mxCell>
        <mxCell id="i8wJTRRKYK57xuwCyLoE-38" value="Москитные сетки" style="rounded=1;whiteSpace=wrap;html=1;" parent="1" vertex="1">
          <mxGeometry x="1750" y="550" width="110" height="30" as="geometry" />
        </mxCell>
        <mxCell id="i8wJTRRKYK57xuwCyLoE-39" style="edgeStyle=none;rounded=0;orthogonalLoop=1;jettySize=auto;html=1;exitX=1;exitY=0.5;exitDx=0;exitDy=0;entryX=0;entryY=0.5;entryDx=0;entryDy=0;endArrow=none;endFill=0;" parent="1" source="i8wJTRRKYK57xuwCyLoE-45" target="i8wJTRRKYK57xuwCyLoE-50" edge="1">
          <mxGeometry relative="1" as="geometry" />
        </mxCell>
        <mxCell id="i8wJTRRKYK57xuwCyLoE-40" style="edgeStyle=none;rounded=0;orthogonalLoop=1;jettySize=auto;html=1;exitX=0.5;exitY=0;exitDx=0;exitDy=0;entryX=0.423;entryY=0.984;entryDx=0;entryDy=0;entryPerimeter=0;endArrow=classic;endFill=1;fillColor=#dae8fc;strokeColor=#6c8ebf;" parent="1" source="i8wJTRRKYK57xuwCyLoE-45" target="i8wJTRRKYK57xuwCyLoE-76" edge="1">
          <mxGeometry relative="1" as="geometry" />
        </mxCell>
        <mxCell id="i8wJTRRKYK57xuwCyLoE-41" style="edgeStyle=none;rounded=0;orthogonalLoop=1;jettySize=auto;html=1;exitX=0.75;exitY=0;exitDx=0;exitDy=0;endArrow=classic;endFill=1;fillColor=#ffe6cc;strokeColor=#d79b00;" parent="1" source="i8wJTRRKYK57xuwCyLoE-45" target="i8wJTRRKYK57xuwCyLoE-78" edge="1">
          <mxGeometry relative="1" as="geometry" />
        </mxCell>
        <mxCell id="i8wJTRRKYK57xuwCyLoE-42" style="edgeStyle=orthogonalEdgeStyle;rounded=0;orthogonalLoop=1;jettySize=auto;html=1;exitX=0.75;exitY=1;exitDx=0;exitDy=0;entryX=0.75;entryY=1;entryDx=0;entryDy=0;endArrow=classic;endFill=1;" parent="1" source="i8wJTRRKYK57xuwCyLoE-45" target="i8wJTRRKYK57xuwCyLoE-73" edge="1">
          <mxGeometry relative="1" as="geometry" />
        </mxCell>
        <mxCell id="i8wJTRRKYK57xuwCyLoE-43" style="edgeStyle=none;rounded=0;orthogonalLoop=1;jettySize=auto;html=1;exitX=0.25;exitY=0;exitDx=0;exitDy=0;endArrow=classic;endFill=1;fillColor=#d5e8d4;strokeColor=#82b366;" parent="1" source="i8wJTRRKYK57xuwCyLoE-45" target="i8wJTRRKYK57xuwCyLoE-84" edge="1">
          <mxGeometry relative="1" as="geometry" />
        </mxCell>
        <mxCell id="i8wJTRRKYK57xuwCyLoE-44" style="edgeStyle=none;rounded=0;orthogonalLoop=1;jettySize=auto;html=1;exitX=0;exitY=0.5;exitDx=0;exitDy=0;endArrow=classic;endFill=1;fillColor=#fff2cc;strokeColor=#d6b656;" parent="1" source="i8wJTRRKYK57xuwCyLoE-45" target="i8wJTRRKYK57xuwCyLoE-86" edge="1">
          <mxGeometry relative="1" as="geometry" />
        </mxCell>
        <mxCell id="i8wJTRRKYK57xuwCyLoE-45" value="&lt;font style=&quot;font-size: 8px&quot;&gt;compact&lt;/font&gt;" style="rounded=1;whiteSpace=wrap;html=1;" parent="1" vertex="1">
          <mxGeometry x="560" y="480" width="40" height="20" as="geometry" />
        </mxCell>
        <mxCell id="i8wJTRRKYK57xuwCyLoE-46" style="edgeStyle=none;rounded=0;orthogonalLoop=1;jettySize=auto;html=1;exitX=1;exitY=0.5;exitDx=0;exitDy=0;entryX=0;entryY=0.5;entryDx=0;entryDy=0;endArrow=none;endFill=0;" parent="1" source="i8wJTRRKYK57xuwCyLoE-50" target="i8wJTRRKYK57xuwCyLoE-55" edge="1">
          <mxGeometry relative="1" as="geometry" />
        </mxCell>
        <mxCell id="i8wJTRRKYK57xuwCyLoE-47" style="edgeStyle=none;rounded=0;orthogonalLoop=1;jettySize=auto;html=1;exitX=0.25;exitY=0;exitDx=0;exitDy=0;endArrow=classic;endFill=1;fillColor=#dae8fc;strokeColor=#6c8ebf;" parent="1" source="i8wJTRRKYK57xuwCyLoE-50" target="i8wJTRRKYK57xuwCyLoE-76" edge="1">
          <mxGeometry relative="1" as="geometry" />
        </mxCell>
        <mxCell id="i8wJTRRKYK57xuwCyLoE-48" style="edgeStyle=none;rounded=0;orthogonalLoop=1;jettySize=auto;html=1;exitX=0.5;exitY=0;exitDx=0;exitDy=0;endArrow=classic;endFill=1;fillColor=#ffe6cc;strokeColor=#d79b00;" parent="1" source="i8wJTRRKYK57xuwCyLoE-50" target="i8wJTRRKYK57xuwCyLoE-78" edge="1">
          <mxGeometry relative="1" as="geometry" />
        </mxCell>
        <mxCell id="i8wJTRRKYK57xuwCyLoE-49" style="edgeStyle=none;rounded=0;orthogonalLoop=1;jettySize=auto;html=1;exitX=0.5;exitY=0;exitDx=0;exitDy=0;entryX=0.25;entryY=1;entryDx=0;entryDy=0;endArrow=classic;endFill=1;fillColor=#e1d5e7;strokeColor=#9673a6;" parent="1" source="i8wJTRRKYK57xuwCyLoE-50" target="i8wJTRRKYK57xuwCyLoE-85" edge="1">
          <mxGeometry relative="1" as="geometry" />
        </mxCell>
        <mxCell id="i8wJTRRKYK57xuwCyLoE-50" value="&lt;font style=&quot;font-size: 8px&quot;&gt;фалш шторы&lt;/font&gt;" style="rounded=1;whiteSpace=wrap;html=1;" parent="1" vertex="1">
          <mxGeometry x="610" y="480" width="60" height="20" as="geometry" />
        </mxCell>
        <mxCell id="i8wJTRRKYK57xuwCyLoE-51" style="edgeStyle=none;rounded=0;orthogonalLoop=1;jettySize=auto;html=1;exitX=1;exitY=0.5;exitDx=0;exitDy=0;entryX=0;entryY=0.5;entryDx=0;entryDy=0;endArrow=none;endFill=0;" parent="1" source="i8wJTRRKYK57xuwCyLoE-55" target="i8wJTRRKYK57xuwCyLoE-59" edge="1">
          <mxGeometry relative="1" as="geometry" />
        </mxCell>
        <mxCell id="i8wJTRRKYK57xuwCyLoE-52" style="edgeStyle=none;rounded=0;orthogonalLoop=1;jettySize=auto;html=1;exitX=0.5;exitY=0;exitDx=0;exitDy=0;endArrow=classic;endFill=1;fillColor=#ffe6cc;strokeColor=#d79b00;" parent="1" source="i8wJTRRKYK57xuwCyLoE-55" target="i8wJTRRKYK57xuwCyLoE-78" edge="1">
          <mxGeometry relative="1" as="geometry" />
        </mxCell>
        <mxCell id="i8wJTRRKYK57xuwCyLoE-53" style="edgeStyle=none;rounded=0;orthogonalLoop=1;jettySize=auto;html=1;exitX=0.25;exitY=0;exitDx=0;exitDy=0;endArrow=classic;endFill=1;fillColor=#d5e8d4;strokeColor=#82b366;" parent="1" source="i8wJTRRKYK57xuwCyLoE-55" target="i8wJTRRKYK57xuwCyLoE-84" edge="1">
          <mxGeometry relative="1" as="geometry" />
        </mxCell>
        <mxCell id="i8wJTRRKYK57xuwCyLoE-54" style="edgeStyle=none;rounded=0;orthogonalLoop=1;jettySize=auto;html=1;exitX=0.25;exitY=1;exitDx=0;exitDy=0;fillColor=#e1d5e7;strokeColor=#9673a6;" parent="1" source="i8wJTRRKYK57xuwCyLoE-55" target="i8wJTRRKYK57xuwCyLoE-90" edge="1">
          <mxGeometry relative="1" as="geometry" />
        </mxCell>
        <mxCell id="i8wJTRRKYK57xuwCyLoE-55" value="&lt;font style=&quot;font-size: 8px&quot;&gt;MINI&lt;/font&gt;" style="rounded=1;whiteSpace=wrap;html=1;" parent="1" vertex="1">
          <mxGeometry x="680" y="480" width="30" height="20" as="geometry" />
        </mxCell>
        <mxCell id="i8wJTRRKYK57xuwCyLoE-56" style="edgeStyle=none;rounded=0;orthogonalLoop=1;jettySize=auto;html=1;exitX=1;exitY=0.5;exitDx=0;exitDy=0;entryX=0;entryY=0.5;entryDx=0;entryDy=0;endArrow=none;endFill=0;" parent="1" source="i8wJTRRKYK57xuwCyLoE-59" target="i8wJTRRKYK57xuwCyLoE-73" edge="1">
          <mxGeometry relative="1" as="geometry" />
        </mxCell>
        <mxCell id="i8wJTRRKYK57xuwCyLoE-57" style="edgeStyle=none;rounded=0;orthogonalLoop=1;jettySize=auto;html=1;exitX=0.5;exitY=0;exitDx=0;exitDy=0;endArrow=classic;endFill=1;fillColor=#ffe6cc;strokeColor=#d79b00;" parent="1" source="i8wJTRRKYK57xuwCyLoE-59" target="i8wJTRRKYK57xuwCyLoE-78" edge="1">
          <mxGeometry relative="1" as="geometry" />
        </mxCell>
        <mxCell id="i8wJTRRKYK57xuwCyLoE-58" style="edgeStyle=none;rounded=0;orthogonalLoop=1;jettySize=auto;html=1;exitX=0.25;exitY=0;exitDx=0;exitDy=0;entryX=0.724;entryY=0.991;entryDx=0;entryDy=0;entryPerimeter=0;endArrow=classic;endFill=1;fillColor=#d5e8d4;strokeColor=#82b366;" parent="1" source="i8wJTRRKYK57xuwCyLoE-59" target="i8wJTRRKYK57xuwCyLoE-84" edge="1">
          <mxGeometry relative="1" as="geometry" />
        </mxCell>
        <mxCell id="i8wJTRRKYK57xuwCyLoE-59" value="&lt;font style=&quot;font-size: 8px&quot;&gt;STANDARTD&lt;/font&gt;" style="rounded=1;whiteSpace=wrap;html=1;" parent="1" vertex="1">
          <mxGeometry x="720" y="480" width="50" height="20" as="geometry" />
        </mxCell>
        <mxCell id="i8wJTRRKYK57xuwCyLoE-60" style="edgeStyle=none;rounded=0;orthogonalLoop=1;jettySize=auto;html=1;endArrow=none;endFill=0;" parent="1" source="i8wJTRRKYK57xuwCyLoE-65" target="i8wJTRRKYK57xuwCyLoE-73" edge="1">
          <mxGeometry relative="1" as="geometry" />
        </mxCell>
        <mxCell id="i8wJTRRKYK57xuwCyLoE-61" style="edgeStyle=none;rounded=0;orthogonalLoop=1;jettySize=auto;html=1;exitX=0.5;exitY=0;exitDx=0;exitDy=0;entryX=0.5;entryY=1;entryDx=0;entryDy=0;endArrow=classic;endFill=1;fillColor=#dae8fc;strokeColor=#6c8ebf;" parent="1" source="i8wJTRRKYK57xuwCyLoE-65" target="i8wJTRRKYK57xuwCyLoE-79" edge="1">
          <mxGeometry relative="1" as="geometry" />
        </mxCell>
        <mxCell id="i8wJTRRKYK57xuwCyLoE-62" style="edgeStyle=orthogonalEdgeStyle;rounded=0;orthogonalLoop=1;jettySize=auto;html=1;exitX=0.5;exitY=1;exitDx=0;exitDy=0;entryX=0.725;entryY=1.017;entryDx=0;entryDy=0;entryPerimeter=0;endArrow=classic;endFill=1;" parent="1" source="i8wJTRRKYK57xuwCyLoE-65" target="i8wJTRRKYK57xuwCyLoE-69" edge="1">
          <mxGeometry relative="1" as="geometry" />
        </mxCell>
        <mxCell id="i8wJTRRKYK57xuwCyLoE-63" style="edgeStyle=none;rounded=0;orthogonalLoop=1;jettySize=auto;html=1;exitX=0.25;exitY=0;exitDx=0;exitDy=0;endArrow=classic;endFill=1;fillColor=#e1d5e7;strokeColor=#9673a6;" parent="1" source="i8wJTRRKYK57xuwCyLoE-65" target="i8wJTRRKYK57xuwCyLoE-85" edge="1">
          <mxGeometry relative="1" as="geometry" />
        </mxCell>
        <mxCell id="i8wJTRRKYK57xuwCyLoE-64" style="edgeStyle=none;rounded=0;orthogonalLoop=1;jettySize=auto;html=1;exitX=0;exitY=1;exitDx=0;exitDy=0;fillColor=#e1d5e7;strokeColor=#9673a6;" parent="1" source="i8wJTRRKYK57xuwCyLoE-65" target="i8wJTRRKYK57xuwCyLoE-90" edge="1">
          <mxGeometry relative="1" as="geometry" />
        </mxCell>
        <mxCell id="i8wJTRRKYK57xuwCyLoE-65" value="&lt;font style=&quot;font-size: 8px&quot;&gt;UNI Плоскю Напралю&lt;/font&gt;" style="rounded=1;whiteSpace=wrap;html=1;" parent="1" vertex="1">
          <mxGeometry x="830" y="480" width="90" height="20" as="geometry" />
        </mxCell>
        <mxCell id="i8wJTRRKYK57xuwCyLoE-66" style="edgeStyle=none;rounded=0;orthogonalLoop=1;jettySize=auto;html=1;entryX=1;entryY=0.5;entryDx=0;entryDy=0;endArrow=none;endFill=0;" parent="1" source="i8wJTRRKYK57xuwCyLoE-69" target="i8wJTRRKYK57xuwCyLoE-65" edge="1">
          <mxGeometry relative="1" as="geometry" />
        </mxCell>
        <mxCell id="i8wJTRRKYK57xuwCyLoE-67" style="edgeStyle=none;rounded=0;orthogonalLoop=1;jettySize=auto;html=1;exitX=0.25;exitY=0;exitDx=0;exitDy=0;entryX=0.75;entryY=1;entryDx=0;entryDy=0;endArrow=classic;endFill=1;fillColor=#e1d5e7;strokeColor=#9673a6;" parent="1" source="i8wJTRRKYK57xuwCyLoE-69" target="i8wJTRRKYK57xuwCyLoE-85" edge="1">
          <mxGeometry relative="1" as="geometry" />
        </mxCell>
        <mxCell id="i8wJTRRKYK57xuwCyLoE-68" style="edgeStyle=none;rounded=0;orthogonalLoop=1;jettySize=auto;html=1;exitX=0.25;exitY=1;exitDx=0;exitDy=0;fillColor=#e1d5e7;strokeColor=#9673a6;" parent="1" source="i8wJTRRKYK57xuwCyLoE-69" target="i8wJTRRKYK57xuwCyLoE-90" edge="1">
          <mxGeometry relative="1" as="geometry" />
        </mxCell>
        <mxCell id="i8wJTRRKYK57xuwCyLoE-69" value="&lt;font style=&quot;font-size: 8px&quot;&gt;UNI П-обрю Направл.&lt;/font&gt;" style="rounded=1;whiteSpace=wrap;html=1;" parent="1" vertex="1">
          <mxGeometry x="930" y="480" width="100" height="20" as="geometry" />
        </mxCell>
        <mxCell id="i8wJTRRKYK57xuwCyLoE-70" style="edgeStyle=none;rounded=0;orthogonalLoop=1;jettySize=auto;html=1;exitX=0.5;exitY=1;exitDx=0;exitDy=0;entryX=0.501;entryY=0.667;entryDx=0;entryDy=0;entryPerimeter=0;endArrow=none;endFill=0;" parent="1" source="i8wJTRRKYK57xuwCyLoE-65" target="i8wJTRRKYK57xuwCyLoE-65" edge="1">
          <mxGeometry relative="1" as="geometry" />
        </mxCell>
        <mxCell id="i8wJTRRKYK57xuwCyLoE-71" style="edgeStyle=none;rounded=0;orthogonalLoop=1;jettySize=auto;html=1;exitX=0.25;exitY=0;exitDx=0;exitDy=0;endArrow=classic;endFill=1;fillColor=#ffe6cc;strokeColor=#d79b00;" parent="1" source="i8wJTRRKYK57xuwCyLoE-73" target="i8wJTRRKYK57xuwCyLoE-78" edge="1">
          <mxGeometry relative="1" as="geometry" />
        </mxCell>
        <mxCell id="i8wJTRRKYK57xuwCyLoE-72" style="edgeStyle=none;rounded=0;orthogonalLoop=1;jettySize=auto;html=1;exitX=0.25;exitY=0;exitDx=0;exitDy=0;entryX=0.945;entryY=1.027;entryDx=0;entryDy=0;entryPerimeter=0;endArrow=classic;endFill=1;fillColor=#d5e8d4;strokeColor=#82b366;" parent="1" source="i8wJTRRKYK57xuwCyLoE-73" target="i8wJTRRKYK57xuwCyLoE-84" edge="1">
          <mxGeometry relative="1" as="geometry" />
        </mxCell>
        <mxCell id="i8wJTRRKYK57xuwCyLoE-73" value="&lt;font style=&quot;font-size: 8px&quot;&gt;MAXIMUS&lt;/font&gt;" style="rounded=1;whiteSpace=wrap;html=1;" parent="1" vertex="1">
          <mxGeometry x="780" y="480" width="40" height="20" as="geometry" />
        </mxCell>
        <mxCell id="i8wJTRRKYK57xuwCyLoE-74" value="&lt;div style=&quot;text-align: left&quot;&gt;&lt;span style=&quot;font-size: 8px&quot;&gt;1. Не считать площадь меньше 0.7&amp;nbsp;&lt;/span&gt;&lt;/div&gt;&lt;div style=&quot;text-align: left&quot;&gt;&lt;span style=&quot;font-size: 8px&quot;&gt;2. Добавить тип управлениия как у вертикальных , типо: Т1 , т2 итд&lt;/span&gt;&lt;/div&gt;&lt;div style=&quot;text-align: left&quot;&gt;&lt;span style=&quot;font-size: 8px&quot;&gt;&lt;br&gt;&lt;/span&gt;&lt;/div&gt;" style="whiteSpace=wrap;html=1;fillColor=#dae8fc;strokeColor=#6c8ebf;" parent="1" vertex="1">
          <mxGeometry x="860" y="760" width="140" height="60" as="geometry" />
        </mxCell>
        <mxCell id="i8wJTRRKYK57xuwCyLoE-75" value="&lt;span style=&quot;font-size: 8px ; line-height: 80%&quot;&gt;Мин площаль 1м&lt;/span&gt;" style="whiteSpace=wrap;html=1;fillColor=#dae8fc;strokeColor=#6c8ebf;" parent="1" vertex="1">
          <mxGeometry x="1740" y="465" width="70" height="30" as="geometry" />
        </mxCell>
        <mxCell id="i8wJTRRKYK57xuwCyLoE-76" value="&lt;span style=&quot;font-size: 8px&quot;&gt;1.Разделить эти две системы. У них просто одинаковые расценки.&lt;/span&gt;" style="whiteSpace=wrap;html=1;align=left;fillColor=#dae8fc;strokeColor=#6c8ebf;" parent="1" vertex="1">
          <mxGeometry x="430" y="340" width="120" height="60" as="geometry" />
        </mxCell>
        <mxCell id="i8wJTRRKYK57xuwCyLoE-77" value="&lt;div style=&quot;text-align: left&quot;&gt;&lt;span style=&quot;font-size: 8px&quot;&gt;1. Сделать Select наценка от 15% до 100% все вкладки кратны 5%&lt;/span&gt;&lt;/div&gt;&lt;div style=&quot;text-align: left&quot;&gt;&lt;span style=&quot;font-size: 8px&quot;&gt;2. сделать конвертер валют с доллара на гривну . Клиент вводит курс долара в гривнах ему выхает цену. Просто цена умножается на то что он ввел&lt;/span&gt;&lt;/div&gt;" style="whiteSpace=wrap;html=1;fillColor=#d5e8d4;strokeColor=#82b366;" parent="1" vertex="1">
          <mxGeometry x="1250" y="760" width="190" height="70" as="geometry" />
        </mxCell>
        <mxCell id="i8wJTRRKYK57xuwCyLoE-78" value="&lt;font style=&quot;line-height: 60% ; font-size: 8px&quot;&gt;1. Добавить выбор Размер: СТД или РГ. по умлчани. СТД ,если СТД то в бланк попадать не будет&lt;br&gt;&lt;br&gt;&lt;/font&gt;" style="whiteSpace=wrap;html=1;fillColor=#ffe6cc;strokeColor=#d79b00;align=left;" parent="1" vertex="1">
          <mxGeometry x="445" y="190" width="150" height="70" as="geometry" />
        </mxCell>
        <mxCell id="i8wJTRRKYK57xuwCyLoE-79" value="&lt;font style=&quot;line-height: 60% ; font-size: 8px&quot;&gt;1.Добавить вторую ширину (input) &quot;Ширина стекла&quot;. Эта ширина не на что не влияет, а просто добавляется в бланк к основной ширине через дробь. Текст основной ширины изменить на &quot;Ширина ребра&quot;&lt;br&gt;2. Дабавить radio или select Доп скот с пунктами:Без скотча(по умолчанию) и Доп. скотч.&lt;br&gt;Если выбран пункт Доп. скотч то за каждый метр высоты к цене будет добавляться 0.8 дол&lt;br&gt;&lt;br&gt;&lt;/font&gt;" style="whiteSpace=wrap;html=1;fillColor=#dae8fc;strokeColor=#6c8ebf;align=left;" parent="1" vertex="1">
          <mxGeometry x="820" y="300" width="210" height="140" as="geometry" />
        </mxCell>
        <mxCell id="i8wJTRRKYK57xuwCyLoE-80" value="&lt;font style=&quot;font-size: 8px ; line-height: 80%&quot;&gt;1.В Бел / Кор меняется цена. Если выбран коричневый то к цене добавляется +1 , +2 , +3 , +4&lt;br&gt;&lt;br&gt;&lt;/font&gt;" style="whiteSpace=wrap;html=1;fillColor=#f8cecc;strokeColor=#b85450;align=left;" parent="1" vertex="1">
          <mxGeometry x="700" y="620" width="140" height="60" as="geometry" />
        </mxCell>
        <mxCell id="i8wJTRRKYK57xuwCyLoE-81" value="&lt;font style=&quot;font-size: 9px ; background-color: rgb(13 , 13 , 13)&quot; color=&quot;#ffffff&quot;&gt;Шторы открытого типа&lt;/font&gt;" style="text;html=1;align=center;verticalAlign=middle;resizable=0;points=[];autosize=1;" parent="1" vertex="1">
          <mxGeometry x="635" y="520" width="110" height="20" as="geometry" />
        </mxCell>
        <mxCell id="i8wJTRRKYK57xuwCyLoE-82" value="&lt;font style=&quot;background-color: rgb(15 , 15 , 15) ; font-size: 9px&quot; color=&quot;#f7f7f7&quot;&gt;Шторы закрытого типа&lt;/font&gt;" style="text;html=1;align=center;verticalAlign=middle;resizable=0;points=[];autosize=1;" parent="1" vertex="1">
          <mxGeometry x="890" y="520" width="110" height="20" as="geometry" />
        </mxCell>
        <mxCell id="i8wJTRRKYK57xuwCyLoE-83" style="edgeStyle=none;rounded=0;orthogonalLoop=1;jettySize=auto;html=1;exitX=1;exitY=0.5;exitDx=0;exitDy=0;entryX=0;entryY=0.5;entryDx=0;entryDy=0;endArrow=classic;endFill=1;startArrow=classic;startFill=1;" parent="1" source="i8wJTRRKYK57xuwCyLoE-84" target="i8wJTRRKYK57xuwCyLoE-85" edge="1">
          <mxGeometry relative="1" as="geometry" />
        </mxCell>
        <mxCell id="i8wJTRRKYK57xuwCyLoE-84" value="&lt;font style=&quot;line-height: 60% ; font-size: 8px&quot;&gt;1. Выбор системы фиксации, Добавить radio &quot;без фиксации&quot;, по умолчанию идет это radio. За магнидную фиксацию досчитывается 0.9 дол за коплект.(прибавляется к цене)&lt;br&gt;&lt;br&gt;Цены на Направлющую струну:&lt;br&gt;РУЛ ШТОРЫ: Compact, Mini Standard = 0.9 дол, Maximus = 2.5 дол&lt;br&gt;ДЕНЬ НОЧЬ: Compact, Mini Standard = 1.2 дол, Maximus = 3.0 дол&lt;br&gt;&lt;br&gt;&lt;br&gt;&lt;/font&gt;" style="whiteSpace=wrap;html=1;fillColor=#d5e8d4;strokeColor=#82b366;align=left;" parent="1" vertex="1">
          <mxGeometry x="470" y="40" width="270" height="120" as="geometry" />
        </mxCell>
        <mxCell id="i8wJTRRKYK57xuwCyLoE-85" value="&lt;font style=&quot;line-height: 60% ; font-size: 8px&quot;&gt;1. При выборе системы фиксации можно выбрать только &quot;Без фиксации&quot;.&lt;br&gt;Возможно даже полностью убрать выбор системы фиксации.&lt;br&gt;&lt;/font&gt;" style="whiteSpace=wrap;html=1;fillColor=#e1d5e7;strokeColor=#9673a6;align=left;" parent="1" vertex="1">
          <mxGeometry x="820" y="65" width="150" height="70" as="geometry" />
        </mxCell>
        <mxCell id="i8wJTRRKYK57xuwCyLoE-86" value="&lt;span style=&quot;font-size: 8px&quot;&gt;1. Во владве ДЕНЬ НОЧЬ&amp;nbsp; поменять название на EcoCompact&lt;/span&gt;" style="whiteSpace=wrap;html=1;align=left;fillColor=#fff2cc;strokeColor=#d6b656;" parent="1" vertex="1">
          <mxGeometry x="385" y="450" width="120" height="60" as="geometry" />
        </mxCell>
        <mxCell id="i8wJTRRKYK57xuwCyLoE-87" value="&lt;font style=&quot;font-size: 6px&quot;&gt;система фиксации&lt;/font&gt;" style="text;html=1;align=center;verticalAlign=middle;resizable=0;points=[];autosize=1;" parent="1" vertex="1">
          <mxGeometry x="745" y="80" width="70" height="20" as="geometry" />
        </mxCell>
        <mxCell id="i8wJTRRKYK57xuwCyLoE-88" value="&lt;span style=&quot;font-size: 8px&quot;&gt;0&lt;/span&gt;&lt;span style=&quot;font-size: 8px&quot;&gt;. Минимальная ширина 1м, мин высота 1.5м&lt;/span&gt;&lt;span style=&quot;font-size: 8px&quot;&gt;&lt;br&gt;1. В бланке первым должно идти название а после номер&lt;br&gt;2. Поменять вкладки местами,&lt;br&gt;3. В блан в колонку Система&amp;nbsp; и Цвет пред названием должно попадать&amp;nbsp;&lt;/span&gt;&lt;span style=&quot;font-size: 8px&quot;&gt;Верт 127 или&amp;nbsp;&lt;/span&gt;&lt;span style=&quot;font-size: 8px&quot;&gt;&lt;br&gt;&amp;nbsp;Верт 89&lt;br&gt;4. добавить select Крепление с пунктами : Потолочные, стеновые и стеновые с удленителем .&lt;br&gt;Если выбран пункт Потолочные то ничего не досчитывается только попадает в бланк.&lt;br&gt;Если выбран пункт Стеновые то&amp;nbsp; до ширины 1.7м досчитываеются 2 крепления по 0.3 , От 1.7м до 2.5м добавляются три крепления по 0.3 дол. Если больше 2.5 м то 4 крепления досчитываются к цене и попадают в бланк.&lt;br&gt;Если выбран пункт Стеновые с удленителем то делается все тоже самое что и в пункте Стеновые только вместо 0.3 дол за помплект 0.6дол&lt;br&gt;&lt;/span&gt;" style="whiteSpace=wrap;html=1;fillColor=#dae8fc;strokeColor=#6c8ebf;align=left;" parent="1" vertex="1">
          <mxGeometry x="1450" y="240" width="300" height="210" as="geometry" />
        </mxCell>
        <mxCell id="i8wJTRRKYK57xuwCyLoE-89" value="&lt;font style=&quot;font-size: 8px ; line-height: 80%&quot;&gt;1. Дабавить radio или select Груз цепи с пунктами Без цепи(по умолчманию) и груз цепи .&lt;br&gt;Груз цепи стоит 0.2 дол / штука. Добавляется ко всем кроме &quot;Фалш шторы&quot;&lt;br&gt;2.&amp;nbsp; Дабавить radio или select фиксатор цепи(фикс цепи) с пунктами Без цепи(по умолчманию) и фикс. цепи&amp;nbsp; .&lt;br&gt;Фикс. цепи стоит 0.2 дол / штука. Добавляется ко всем кроме &quot;Фалш шторы&quot;, standard и maximus &lt;br&gt;3. но К колонками&amp;nbsp;standard и maximus добавляется фиксатор цепи униваерсальный (фикс цепи универс) стоимость 0.2 дол . тот же принцып что и во втором пункте.&lt;br&gt;&lt;br&gt;&lt;/font&gt;" style="whiteSpace=wrap;html=1;fillColor=#d5e8d4;strokeColor=#82b366;align=left;" parent="1" vertex="1">
          <mxGeometry x="980" y="110" width="280" height="170" as="geometry" />
        </mxCell>
        <mxCell id="i8wJTRRKYK57xuwCyLoE-90" value="&lt;font style=&quot;line-height: 60% ; font-size: 8px&quot;&gt;РАСЦЕНКИ В ЭТОМ ПУНКТЕ НЕ ТОЧНЫЕ И ТАКЖЕ КЛИЕНТ НЕ ПОЛНОСТЬЮ УВЕРЕН НУЖНА ЭТА ШТУКА ИЛИ НЕТ. ТАК ЖЕ У СИСТЕМЫ STANDARD БУДУТ ДРУГИЕ ЦЕНЫ&lt;br&gt;1. Добавить select или radio Способ управления: Цепь(по умолчанию) и Мотор .&lt;br&gt;Если выбран Цепь то ничего не попадает в бланк и цена не меняется .&amp;nbsp;&lt;br&gt;Если выбран Мотор то в бланк добавляется Мот. К цене за мотор добавляется 85дол. Так же при выборе Мотор появляются еще три варианта выбора пультов: 1 канал 24дол, 2 канала 26 дол и 5 каналов 30дол&amp;nbsp;&lt;br&gt;&lt;br&gt;&lt;br&gt;&lt;/font&gt;" style="whiteSpace=wrap;html=1;fillColor=#e1d5e7;strokeColor=#9673a6;align=left;" parent="1" vertex="1">
          <mxGeometry x="360" y="540" width="265" height="180" as="geometry" />
        </mxCell>
        <mxCell id="i8wJTRRKYK57xuwCyLoE-91" value="&lt;font color=&quot;#ffffff&quot;&gt;Черным цветом выделять пункты которые уже готов&lt;/font&gt;" style="whiteSpace=wrap;html=1;fillColor=#141414;" parent="1" vertex="1">
          <mxGeometry x="1530" y="60" width="310" height="60" as="geometry" />
        </mxCell>
        <mxCell id="i8wJTRRKYK57xuwCyLoE-92" value="&lt;font style=&quot;line-height: 60%&quot;&gt;&lt;span style=&quot;font-size: 8px&quot;&gt;&lt;br&gt;&lt;/span&gt;&lt;div&gt;&lt;span style=&quot;font-size: 8px&quot;&gt;1. Добавить выбор пластиковых фиксаторов, Пластиковые фиксаторы: Без фиксаторов или Пластиковые фикстары. 0.3 дол за один комплект. Добавление к названию в бланке Фикс&lt;/span&gt;&lt;/div&gt;&lt;div&gt;&lt;span style=&quot;font-size: 8px&quot;&gt;&lt;br&gt;&lt;/span&gt;&lt;/div&gt;&lt;div&gt;&lt;span style=&quot;font-size: 8px&quot;&gt;2.&lt;/span&gt;&lt;/div&gt;&lt;div&gt;&lt;span style=&quot;font-size: 8px&quot;&gt;&lt;span&gt;возможность добавления направляющей струны. В бланк должно добавляться: Струна.&lt;/span&gt;&lt;br&gt;&lt;/span&gt;&lt;/div&gt;&lt;/font&gt;&lt;div&gt;&lt;span style=&quot;font-size: 8px&quot;&gt;Только она идет не за комплект а добавляет к стоимости квадратного метра 2.5$&lt;/span&gt;&lt;/div&gt;&lt;div&gt;&lt;span style=&quot;font-size: 8px&quot;&gt;Тоесть к примеру белые горизонтальные жалюзи стоят 5$ то если со струной уже 7.5$&lt;/span&gt;&lt;/div&gt;" style="whiteSpace=wrap;html=1;fillColor=#e1d5e7;strokeColor=#9673a6;align=left;" parent="1" vertex="1">
          <mxGeometry x="1240" y="350" width="190" height="140" as="geometry" />
        </mxCell>
        <mxCell id="i8wJTRRKYK57xuwCyLoE-93" style="edgeStyle=none;rounded=0;orthogonalLoop=1;jettySize=auto;html=1;exitX=0;exitY=1;exitDx=0;exitDy=0;entryX=0.25;entryY=0;entryDx=0;entryDy=0;fillColor=#d5e8d4;strokeColor=#82b366;" parent="1" source="i8wJTRRKYK57xuwCyLoE-95" target="i8wJTRRKYK57xuwCyLoE-131" edge="1">
          <mxGeometry relative="1" as="geometry" />
        </mxCell>
        <mxCell id="i8wJTRRKYK57xuwCyLoE-94" style="edgeStyle=none;rounded=0;orthogonalLoop=1;jettySize=auto;html=1;exitX=0.5;exitY=1;exitDx=0;exitDy=0;fillColor=#dae8fc;strokeColor=#6c8ebf;" parent="1" source="i8wJTRRKYK57xuwCyLoE-95" target="i8wJTRRKYK57xuwCyLoE-132" edge="1">
          <mxGeometry relative="1" as="geometry" />
        </mxCell>
        <mxCell id="i8wJTRRKYK57xuwCyLoE-95" value="рулонные шторы" style="rounded=1;whiteSpace=wrap;html=1;" parent="1" vertex="1">
          <mxGeometry x="715" y="1040" width="120" height="30" as="geometry" />
        </mxCell>
        <mxCell id="i8wJTRRKYK57xuwCyLoE-96" style="edgeStyle=none;rounded=0;orthogonalLoop=1;jettySize=auto;html=1;exitX=0.25;exitY=1;exitDx=0;exitDy=0;fillColor=#d5e8d4;strokeColor=#82b366;" parent="1" source="i8wJTRRKYK57xuwCyLoE-98" target="i8wJTRRKYK57xuwCyLoE-131" edge="1">
          <mxGeometry relative="1" as="geometry" />
        </mxCell>
        <mxCell id="i8wJTRRKYK57xuwCyLoE-97" style="edgeStyle=none;rounded=0;orthogonalLoop=1;jettySize=auto;html=1;exitX=0.25;exitY=1;exitDx=0;exitDy=0;fillColor=#dae8fc;strokeColor=#6c8ebf;" parent="1" source="i8wJTRRKYK57xuwCyLoE-98" target="i8wJTRRKYK57xuwCyLoE-132" edge="1">
          <mxGeometry relative="1" as="geometry" />
        </mxCell>
        <mxCell id="i8wJTRRKYK57xuwCyLoE-98" value="День ночь" style="rounded=1;whiteSpace=wrap;html=1;" parent="1" vertex="1">
          <mxGeometry x="880" y="1040" width="70" height="30" as="geometry" />
        </mxCell>
        <mxCell id="i8wJTRRKYK57xuwCyLoE-99" style="edgeStyle=none;rounded=0;orthogonalLoop=1;jettySize=auto;html=1;exitX=0.25;exitY=1;exitDx=0;exitDy=0;entryX=1;entryY=0.5;entryDx=0;entryDy=0;fillColor=#d5e8d4;strokeColor=#82b366;" parent="1" source="i8wJTRRKYK57xuwCyLoE-100" target="i8wJTRRKYK57xuwCyLoE-131" edge="1">
          <mxGeometry relative="1" as="geometry" />
        </mxCell>
        <mxCell id="i8wJTRRKYK57xuwCyLoE-100" value="Готовые рулонные шторы" style="rounded=1;whiteSpace=wrap;html=1;" parent="1" vertex="1">
          <mxGeometry x="1035" y="1040" width="160" height="30" as="geometry" />
        </mxCell>
        <mxCell id="i8wJTRRKYK57xuwCyLoE-101" style="edgeStyle=none;rounded=0;orthogonalLoop=1;jettySize=auto;html=1;exitX=0;exitY=0.25;exitDx=0;exitDy=0;fillColor=#fff2cc;strokeColor=#d6b656;" parent="1" source="i8wJTRRKYK57xuwCyLoE-107" target="i8wJTRRKYK57xuwCyLoE-133" edge="1">
          <mxGeometry relative="1" as="geometry" />
        </mxCell>
        <mxCell id="i8wJTRRKYK57xuwCyLoE-102" style="edgeStyle=none;rounded=0;orthogonalLoop=1;jettySize=auto;html=1;exitX=0.5;exitY=0;exitDx=0;exitDy=0;entryX=0.629;entryY=1.002;entryDx=0;entryDy=0;entryPerimeter=0;fillColor=#dae8fc;strokeColor=#6c8ebf;" parent="1" source="i8wJTRRKYK57xuwCyLoE-107" target="i8wJTRRKYK57xuwCyLoE-134" edge="1">
          <mxGeometry relative="1" as="geometry" />
        </mxCell>
        <mxCell id="i8wJTRRKYK57xuwCyLoE-103" style="edgeStyle=none;rounded=0;orthogonalLoop=1;jettySize=auto;html=1;exitX=0.75;exitY=1;exitDx=0;exitDy=0;fillColor=#ffe6cc;strokeColor=#d79b00;" parent="1" source="i8wJTRRKYK57xuwCyLoE-107" target="i8wJTRRKYK57xuwCyLoE-135" edge="1">
          <mxGeometry relative="1" as="geometry" />
        </mxCell>
        <mxCell id="i8wJTRRKYK57xuwCyLoE-104" style="edgeStyle=none;rounded=0;orthogonalLoop=1;jettySize=auto;html=1;exitX=1;exitY=0.5;exitDx=0;exitDy=0;entryX=0;entryY=0.5;entryDx=0;entryDy=0;endArrow=none;endFill=0;" parent="1" source="i8wJTRRKYK57xuwCyLoE-107" target="i8wJTRRKYK57xuwCyLoE-112" edge="1">
          <mxGeometry relative="1" as="geometry" />
        </mxCell>
        <mxCell id="i8wJTRRKYK57xuwCyLoE-105" style="edgeStyle=orthogonalEdgeStyle;rounded=0;orthogonalLoop=1;jettySize=auto;html=1;exitX=0.5;exitY=0;exitDx=0;exitDy=0;entryX=0.75;entryY=0;entryDx=0;entryDy=0;endArrow=none;endFill=0;" parent="1" source="i8wJTRRKYK57xuwCyLoE-107" target="i8wJTRRKYK57xuwCyLoE-121" edge="1">
          <mxGeometry relative="1" as="geometry" />
        </mxCell>
        <mxCell id="i8wJTRRKYK57xuwCyLoE-106" style="edgeStyle=none;rounded=0;orthogonalLoop=1;jettySize=auto;html=1;exitX=1;exitY=1;exitDx=0;exitDy=0;entryX=0;entryY=0;entryDx=0;entryDy=0;endArrow=classic;endFill=1;fillColor=#d5e8d4;strokeColor=#82b366;" parent="1" source="i8wJTRRKYK57xuwCyLoE-107" target="i8wJTRRKYK57xuwCyLoE-142" edge="1">
          <mxGeometry relative="1" as="geometry" />
        </mxCell>
        <mxCell id="i8wJTRRKYK57xuwCyLoE-107" value="&lt;font style=&quot;font-size: 8px&quot;&gt;compact&lt;/font&gt;" style="rounded=1;whiteSpace=wrap;html=1;" parent="1" vertex="1">
          <mxGeometry x="540" y="1120" width="40" height="20" as="geometry" />
        </mxCell>
        <mxCell id="i8wJTRRKYK57xuwCyLoE-108" style="edgeStyle=none;rounded=0;orthogonalLoop=1;jettySize=auto;html=1;exitX=0.25;exitY=0;exitDx=0;exitDy=0;fillColor=#dae8fc;strokeColor=#6c8ebf;" parent="1" source="i8wJTRRKYK57xuwCyLoE-112" target="i8wJTRRKYK57xuwCyLoE-134" edge="1">
          <mxGeometry relative="1" as="geometry" />
        </mxCell>
        <mxCell id="i8wJTRRKYK57xuwCyLoE-109" style="edgeStyle=none;rounded=0;orthogonalLoop=1;jettySize=auto;html=1;exitX=0.5;exitY=1;exitDx=0;exitDy=0;fillColor=#ffe6cc;strokeColor=#d79b00;" parent="1" source="i8wJTRRKYK57xuwCyLoE-112" target="i8wJTRRKYK57xuwCyLoE-135" edge="1">
          <mxGeometry relative="1" as="geometry" />
        </mxCell>
        <mxCell id="i8wJTRRKYK57xuwCyLoE-110" style="edgeStyle=none;rounded=0;orthogonalLoop=1;jettySize=auto;html=1;exitX=1;exitY=0.5;exitDx=0;exitDy=0;entryX=0;entryY=0.5;entryDx=0;entryDy=0;endArrow=none;endFill=0;" parent="1" source="i8wJTRRKYK57xuwCyLoE-112" target="i8wJTRRKYK57xuwCyLoE-138" edge="1">
          <mxGeometry relative="1" as="geometry" />
        </mxCell>
        <mxCell id="i8wJTRRKYK57xuwCyLoE-111" style="edgeStyle=none;rounded=0;orthogonalLoop=1;jettySize=auto;html=1;exitX=0.75;exitY=1;exitDx=0;exitDy=0;startArrow=none;startFill=0;endArrow=classicThin;endFill=1;fillColor=#e1d5e7;strokeColor=#9673a6;" parent="1" source="i8wJTRRKYK57xuwCyLoE-112" target="i8wJTRRKYK57xuwCyLoE-143" edge="1">
          <mxGeometry relative="1" as="geometry" />
        </mxCell>
        <mxCell id="i8wJTRRKYK57xuwCyLoE-112" value="&lt;font style=&quot;font-size: 8px&quot;&gt;фалш шторы&lt;/font&gt;" style="rounded=1;whiteSpace=wrap;html=1;" parent="1" vertex="1">
          <mxGeometry x="610" y="1120" width="60" height="20" as="geometry" />
        </mxCell>
        <mxCell id="i8wJTRRKYK57xuwCyLoE-113" style="edgeStyle=none;rounded=0;orthogonalLoop=1;jettySize=auto;html=1;exitX=0.5;exitY=1;exitDx=0;exitDy=0;fillColor=#ffe6cc;strokeColor=#d79b00;" parent="1" source="i8wJTRRKYK57xuwCyLoE-138" target="i8wJTRRKYK57xuwCyLoE-135" edge="1">
          <mxGeometry relative="1" as="geometry" />
        </mxCell>
        <mxCell id="i8wJTRRKYK57xuwCyLoE-114" style="edgeStyle=none;rounded=0;orthogonalLoop=1;jettySize=auto;html=1;exitX=0.75;exitY=1;exitDx=0;exitDy=0;entryX=0.436;entryY=-0.056;entryDx=0;entryDy=0;entryPerimeter=0;fillColor=#ffe6cc;strokeColor=#d79b00;" parent="1" source="i8wJTRRKYK57xuwCyLoE-117" target="i8wJTRRKYK57xuwCyLoE-135" edge="1">
          <mxGeometry relative="1" as="geometry" />
        </mxCell>
        <mxCell id="i8wJTRRKYK57xuwCyLoE-115" style="edgeStyle=none;rounded=0;orthogonalLoop=1;jettySize=auto;html=1;exitX=1;exitY=0.5;exitDx=0;exitDy=0;entryX=0;entryY=0.5;entryDx=0;entryDy=0;endArrow=none;endFill=0;" parent="1" source="i8wJTRRKYK57xuwCyLoE-117" target="i8wJTRRKYK57xuwCyLoE-121" edge="1">
          <mxGeometry relative="1" as="geometry" />
        </mxCell>
        <mxCell id="i8wJTRRKYK57xuwCyLoE-116" style="edgeStyle=none;rounded=0;orthogonalLoop=1;jettySize=auto;html=1;exitX=0.75;exitY=1;exitDx=0;exitDy=0;endArrow=classic;endFill=1;fillColor=#d5e8d4;strokeColor=#82b366;" parent="1" source="i8wJTRRKYK57xuwCyLoE-117" target="i8wJTRRKYK57xuwCyLoE-142" edge="1">
          <mxGeometry relative="1" as="geometry" />
        </mxCell>
        <mxCell id="i8wJTRRKYK57xuwCyLoE-117" value="&lt;font style=&quot;font-size: 8px&quot;&gt;STANDARTD&lt;/font&gt;" style="rounded=1;whiteSpace=wrap;html=1;" parent="1" vertex="1">
          <mxGeometry x="750" y="1120" width="50" height="20" as="geometry" />
        </mxCell>
        <mxCell id="i8wJTRRKYK57xuwCyLoE-118" style="edgeStyle=none;rounded=0;orthogonalLoop=1;jettySize=auto;html=1;exitX=0.75;exitY=1;exitDx=0;exitDy=0;fillColor=#ffe6cc;strokeColor=#d79b00;" parent="1" source="i8wJTRRKYK57xuwCyLoE-121" target="i8wJTRRKYK57xuwCyLoE-135" edge="1">
          <mxGeometry relative="1" as="geometry" />
        </mxCell>
        <mxCell id="i8wJTRRKYK57xuwCyLoE-119" style="edgeStyle=none;rounded=0;orthogonalLoop=1;jettySize=auto;html=1;exitX=1;exitY=0.5;exitDx=0;exitDy=0;entryX=0;entryY=0.5;entryDx=0;entryDy=0;endArrow=none;endFill=0;" parent="1" source="i8wJTRRKYK57xuwCyLoE-121" target="i8wJTRRKYK57xuwCyLoE-126" edge="1">
          <mxGeometry relative="1" as="geometry" />
        </mxCell>
        <mxCell id="i8wJTRRKYK57xuwCyLoE-120" style="edgeStyle=none;rounded=0;orthogonalLoop=1;jettySize=auto;html=1;exitX=0.75;exitY=1;exitDx=0;exitDy=0;endArrow=classic;endFill=1;fillColor=#d5e8d4;strokeColor=#82b366;" parent="1" source="i8wJTRRKYK57xuwCyLoE-121" target="i8wJTRRKYK57xuwCyLoE-142" edge="1">
          <mxGeometry relative="1" as="geometry" />
        </mxCell>
        <mxCell id="i8wJTRRKYK57xuwCyLoE-121" value="&lt;font style=&quot;font-size: 8px&quot;&gt;MAXIMUS&lt;/font&gt;" style="rounded=1;whiteSpace=wrap;html=1;" parent="1" vertex="1">
          <mxGeometry x="830" y="1120" width="40" height="20" as="geometry" />
        </mxCell>
        <mxCell id="i8wJTRRKYK57xuwCyLoE-122" style="edgeStyle=orthogonalEdgeStyle;rounded=0;orthogonalLoop=1;jettySize=auto;html=1;exitX=1;exitY=0.5;exitDx=0;exitDy=0;entryX=0;entryY=0.5;entryDx=0;entryDy=0;endArrow=none;endFill=0;" parent="1" source="i8wJTRRKYK57xuwCyLoE-126" target="i8wJTRRKYK57xuwCyLoE-128" edge="1">
          <mxGeometry relative="1" as="geometry" />
        </mxCell>
        <mxCell id="i8wJTRRKYK57xuwCyLoE-123" style="edgeStyle=orthogonalEdgeStyle;rounded=0;orthogonalLoop=1;jettySize=auto;html=1;exitX=0.5;exitY=0;exitDx=0;exitDy=0;entryX=0.5;entryY=0;entryDx=0;entryDy=0;endArrow=none;endFill=0;" parent="1" source="i8wJTRRKYK57xuwCyLoE-126" target="i8wJTRRKYK57xuwCyLoE-128" edge="1">
          <mxGeometry relative="1" as="geometry" />
        </mxCell>
        <mxCell id="i8wJTRRKYK57xuwCyLoE-124" style="edgeStyle=none;rounded=0;orthogonalLoop=1;jettySize=auto;html=1;exitX=0.25;exitY=1;exitDx=0;exitDy=0;startArrow=none;startFill=0;endArrow=classicThin;endFill=1;fillColor=#e1d5e7;strokeColor=#9673a6;" parent="1" source="i8wJTRRKYK57xuwCyLoE-126" target="i8wJTRRKYK57xuwCyLoE-143" edge="1">
          <mxGeometry relative="1" as="geometry" />
        </mxCell>
        <mxCell id="i8wJTRRKYK57xuwCyLoE-125" style="edgeStyle=none;rounded=0;orthogonalLoop=1;jettySize=auto;html=1;exitX=0.75;exitY=1;exitDx=0;exitDy=0;entryX=0;entryY=0.5;entryDx=0;entryDy=0;startArrow=none;startFill=0;endArrow=classicThin;endFill=1;fillColor=#dae8fc;strokeColor=#6c8ebf;" parent="1" source="i8wJTRRKYK57xuwCyLoE-126" target="i8wJTRRKYK57xuwCyLoE-146" edge="1">
          <mxGeometry relative="1" as="geometry" />
        </mxCell>
        <mxCell id="i8wJTRRKYK57xuwCyLoE-126" value="&lt;font style=&quot;font-size: 8px&quot;&gt;UNI Плоскю Напралю&lt;/font&gt;" style="rounded=1;whiteSpace=wrap;html=1;" parent="1" vertex="1">
          <mxGeometry x="900" y="1120" width="90" height="20" as="geometry" />
        </mxCell>
        <mxCell id="i8wJTRRKYK57xuwCyLoE-127" style="edgeStyle=none;rounded=0;orthogonalLoop=1;jettySize=auto;html=1;exitX=0.75;exitY=1;exitDx=0;exitDy=0;startArrow=none;startFill=0;endArrow=classicThin;endFill=1;fillColor=#e1d5e7;strokeColor=#9673a6;" parent="1" source="i8wJTRRKYK57xuwCyLoE-128" target="i8wJTRRKYK57xuwCyLoE-143" edge="1">
          <mxGeometry relative="1" as="geometry" />
        </mxCell>
        <mxCell id="i8wJTRRKYK57xuwCyLoE-128" value="&lt;font style=&quot;font-size: 8px&quot;&gt;UNI П-обрю Направл.&lt;/font&gt;" style="rounded=1;whiteSpace=wrap;html=1;" parent="1" vertex="1">
          <mxGeometry x="1017" y="1120" width="100" height="20" as="geometry" />
        </mxCell>
        <mxCell id="i8wJTRRKYK57xuwCyLoE-129" value="&lt;font style=&quot;font-size: 29px&quot;&gt;РУЛОННЫЕ ШТОРЫ&lt;/font&gt;" style="text;html=1;align=center;verticalAlign=middle;resizable=0;points=[];autosize=1;" parent="1" vertex="1">
          <mxGeometry x="745" y="980" width="300" height="20" as="geometry" />
        </mxCell>
        <mxCell id="i8wJTRRKYK57xuwCyLoE-130" style="edgeStyle=none;rounded=0;orthogonalLoop=1;jettySize=auto;html=1;exitX=0;exitY=0.5;exitDx=0;exitDy=0;startArrow=none;startFill=0;endArrow=classicThin;endFill=1;fillColor=#d5e8d4;strokeColor=#82b366;" parent="1" source="i8wJTRRKYK57xuwCyLoE-131" target="i8wJTRRKYK57xuwCyLoE-145" edge="1">
          <mxGeometry relative="1" as="geometry" />
        </mxCell>
        <mxCell id="i8wJTRRKYK57xuwCyLoE-131" value="&lt;div style=&quot;text-align: left&quot;&gt;&lt;span style=&quot;font-size: 8px&quot;&gt;1. Сделать Select наценка от 15% до 100% все вкладки кратны 5%&lt;/span&gt;&lt;/div&gt;&lt;div style=&quot;text-align: left&quot;&gt;&lt;span style=&quot;font-size: 8px&quot;&gt;2. сделать конвертер валют с доллара на гривну . Клиент вводит курс долара в гривнах ему выхает цену. Просто цена умножается на то что он ввел&lt;/span&gt;&lt;/div&gt;" style="whiteSpace=wrap;html=1;fillColor=#d5e8d4;strokeColor=#82b366;" parent="1" vertex="1">
          <mxGeometry x="360" y="1210" width="190" height="70" as="geometry" />
        </mxCell>
        <mxCell id="i8wJTRRKYK57xuwCyLoE-132" value="&lt;div style=&quot;text-align: left&quot;&gt;&lt;span style=&quot;font-size: 8px&quot;&gt;1. Не считать площадь меньше 0.7&amp;nbsp;&lt;/span&gt;&lt;/div&gt;&lt;div style=&quot;text-align: left&quot;&gt;&lt;span style=&quot;font-size: 8px&quot;&gt;2. Добавить тип управлениия как у вертикальных , типо: Т1 , т2 итд&lt;/span&gt;&lt;/div&gt;&lt;div style=&quot;text-align: left&quot;&gt;&lt;span style=&quot;font-size: 8px&quot;&gt;3. В Бел / Кор меняется цена. Если выбран коричневый то к цене добавляется +1 , +2 , +3 , +4&lt;/span&gt;&lt;br style=&quot;font-size: 8px&quot;&gt;&lt;/div&gt;" style="whiteSpace=wrap;html=1;fillColor=#dae8fc;strokeColor=#6c8ebf;" parent="1" vertex="1">
          <mxGeometry x="430" y="1310" width="145" height="100" as="geometry" />
        </mxCell>
        <mxCell id="i8wJTRRKYK57xuwCyLoE-133" value="&lt;span style=&quot;font-size: 8px&quot;&gt;1. Во владве ДЕНЬ НОЧЬ&amp;nbsp; поменять название на EcoCompact&lt;/span&gt;" style="whiteSpace=wrap;html=1;align=left;fillColor=#fff2cc;strokeColor=#d6b656;" parent="1" vertex="1">
          <mxGeometry x="370" y="1090" width="120" height="60" as="geometry" />
        </mxCell>
        <mxCell id="i8wJTRRKYK57xuwCyLoE-134" value="&lt;span style=&quot;font-size: 8px&quot;&gt;1.Разделить эти две системы. У них просто одинаковые расценки.&lt;/span&gt;" style="whiteSpace=wrap;html=1;align=left;fillColor=#dae8fc;strokeColor=#6c8ebf;" parent="1" vertex="1">
          <mxGeometry x="450" y="1000" width="120" height="60" as="geometry" />
        </mxCell>
        <mxCell id="i8wJTRRKYK57xuwCyLoE-135" value="&lt;font style=&quot;line-height: 60% ; font-size: 8px&quot;&gt;1. Добавить выбор Размер: СТД или РГ. по умлчани. СТД ,если СТД то в бланк попадать не будет&lt;br&gt;&lt;br&gt;&lt;/font&gt;" style="whiteSpace=wrap;html=1;fillColor=#ffe6cc;strokeColor=#d79b00;align=left;" parent="1" vertex="1">
          <mxGeometry x="625" y="1325" width="150" height="70" as="geometry" />
        </mxCell>
        <mxCell id="i8wJTRRKYK57xuwCyLoE-136" style="edgeStyle=none;rounded=0;orthogonalLoop=1;jettySize=auto;html=1;exitX=1;exitY=0.5;exitDx=0;exitDy=0;entryX=0;entryY=0.5;entryDx=0;entryDy=0;endArrow=none;endFill=0;" parent="1" source="i8wJTRRKYK57xuwCyLoE-138" target="i8wJTRRKYK57xuwCyLoE-117" edge="1">
          <mxGeometry relative="1" as="geometry" />
        </mxCell>
        <mxCell id="i8wJTRRKYK57xuwCyLoE-137" style="edgeStyle=none;rounded=0;orthogonalLoop=1;jettySize=auto;html=1;exitX=0.75;exitY=1;exitDx=0;exitDy=0;endArrow=classic;endFill=1;fillColor=#d5e8d4;strokeColor=#82b366;" parent="1" source="i8wJTRRKYK57xuwCyLoE-138" target="i8wJTRRKYK57xuwCyLoE-142" edge="1">
          <mxGeometry relative="1" as="geometry" />
        </mxCell>
        <mxCell id="i8wJTRRKYK57xuwCyLoE-138" value="&lt;font style=&quot;font-size: 8px&quot;&gt;MINI&lt;/font&gt;" style="rounded=1;whiteSpace=wrap;html=1;" parent="1" vertex="1">
          <mxGeometry x="690" y="1120" width="30" height="20" as="geometry" />
        </mxCell>
        <mxCell id="i8wJTRRKYK57xuwCyLoE-139" value="шторы открытого типа" style="text;html=1;align=center;verticalAlign=middle;resizable=0;points=[];autosize=1;" parent="1" vertex="1">
          <mxGeometry x="630" y="1080" width="140" height="20" as="geometry" />
        </mxCell>
        <mxCell id="i8wJTRRKYK57xuwCyLoE-140" value="закрытого типа" style="text;html=1;align=center;verticalAlign=middle;resizable=0;points=[];autosize=1;" parent="1" vertex="1">
          <mxGeometry x="960" y="1080" width="100" height="20" as="geometry" />
        </mxCell>
        <mxCell id="i8wJTRRKYK57xuwCyLoE-141" style="edgeStyle=none;rounded=0;orthogonalLoop=1;jettySize=auto;html=1;exitX=1;exitY=0.5;exitDx=0;exitDy=0;endArrow=classic;endFill=1;startArrow=classic;startFill=1;" parent="1" source="i8wJTRRKYK57xuwCyLoE-142" target="i8wJTRRKYK57xuwCyLoE-143" edge="1">
          <mxGeometry relative="1" as="geometry" />
        </mxCell>
        <mxCell id="i8wJTRRKYK57xuwCyLoE-142" value="&lt;font style=&quot;line-height: 60% ; font-size: 8px&quot;&gt;1. Выбор системы фиксации, Добавить radio &quot;без фиксации&quot;, по умолчанию идет это radio. За магнидную фиксацию досчитывается 0.9 дол за коплект.(прибавляется к цене)&lt;br&gt;&lt;br&gt;Цены на Направлющую струну:&lt;br&gt;РУЛ ШТОРЫ: Compact, Mini Standard = 0.9 дол, Maximus = 2.5 дол&lt;br&gt;ДЕНЬ НОЧЬ: Compact, Mini Standard = 1.2 дол, Maximus = 3.0 дол&lt;br&gt;&lt;br&gt;&lt;br&gt;&lt;/font&gt;" style="whiteSpace=wrap;html=1;fillColor=#d5e8d4;strokeColor=#82b366;align=left;" parent="1" vertex="1">
          <mxGeometry x="820" y="1300" width="270" height="120" as="geometry" />
        </mxCell>
        <mxCell id="i8wJTRRKYK57xuwCyLoE-143" value="&lt;font style=&quot;line-height: 60% ; font-size: 8px&quot;&gt;1. При выборе системы фиксации можно выбрать только &quot;Без фиксации&quot;.&lt;br&gt;Возможно даже полностью убрать выбор системы фиксации.&lt;br&gt;&lt;/font&gt;" style="whiteSpace=wrap;html=1;fillColor=#e1d5e7;strokeColor=#9673a6;align=left;" parent="1" vertex="1">
          <mxGeometry x="1160" y="1325" width="150" height="70" as="geometry" />
        </mxCell>
        <mxCell id="i8wJTRRKYK57xuwCyLoE-144" value="&lt;font style=&quot;font-size: 6px&quot;&gt;система фиксации&lt;/font&gt;" style="text;html=1;align=center;verticalAlign=middle;resizable=0;points=[];autosize=1;" parent="1" vertex="1">
          <mxGeometry x="1090" y="1340" width="70" height="20" as="geometry" />
        </mxCell>
        <mxCell id="i8wJTRRKYK57xuwCyLoE-145" value="&lt;font style=&quot;font-size: 8px ; line-height: 80%&quot;&gt;1. Дабавить radio или select Груз цепи с пунктами Без цепи(по умолчманию) и груз цепи .&lt;br&gt;Груз цепи стоит 0.2 дол / штука. Добавляется ко всем кроме &quot;Фалш шторы&quot;&lt;br&gt;2.&amp;nbsp; Дабавить radio или select фиксатор цепи(фикс цепи) с пунктами Без цепи(по умолчманию) и фикс. цепи&amp;nbsp; .&lt;br&gt;Фикс. цепи стоит 0.2 дол / штука. Добавляется ко всем кроме &quot;Фалш шторы&quot;, standard и maximus &lt;br&gt;3. но К колонками&amp;nbsp;standard и maximus добавляется фиксатор цепи униваерсальный (фикс цепи универс) стоимость 0.2 дол . тот же принцып что и во втором пункте.&lt;br&gt;&lt;br&gt;&lt;/font&gt;" style="whiteSpace=wrap;html=1;fillColor=#d5e8d4;strokeColor=#82b366;align=left;" parent="1" vertex="1">
          <mxGeometry x="40" y="1180" width="280" height="170" as="geometry" />
        </mxCell>
        <mxCell id="i8wJTRRKYK57xuwCyLoE-146" value="&lt;font style=&quot;line-height: 60% ; font-size: 8px&quot;&gt;1.Добавить вторую ширину (input) &quot;Ширина стекла&quot;. Эта ширина не на что не влияет, а просто добавляется в бланк к основной ширине через дробь. Текст основной ширины изменить на &quot;Ширина ребра&quot;&lt;br&gt;2. Дабавить radio или select Доп скот с пунктами:Без скотча(по умолчанию) и Доп. скотч.&lt;br&gt;Если выбран пункт Доп. скотч то за каждый метр высоты к цене будет добавляться 0.8 дол&lt;br&gt;&lt;br&gt;&lt;/font&gt;" style="whiteSpace=wrap;html=1;fillColor=#dae8fc;strokeColor=#6c8ebf;align=left;" parent="1" vertex="1">
          <mxGeometry x="1160" y="1150" width="210" height="140" as="geometry" />
        </mxCell>
        <mxCell id="i8wJTRRKYK57xuwCyLoE-147" style="rounded=0;orthogonalLoop=1;jettySize=auto;html=1;exitX=1;exitY=0.5;exitDx=0;exitDy=0;entryX=0;entryY=0.5;entryDx=0;entryDy=0;" parent="1" source="i8wJTRRKYK57xuwCyLoE-148" target="i8wJTRRKYK57xuwCyLoE-151" edge="1">
          <mxGeometry relative="1" as="geometry" />
        </mxCell>
        <mxCell id="i8wJTRRKYK57xuwCyLoE-148" value="&lt;span style=&quot;font-size: 8px&quot;&gt;&amp;nbsp;ДЛЯ КОЛОНОК ОТКРЫТОГО ТИПА&lt;/span&gt;" style="rounded=1;whiteSpace=wrap;html=1;" parent="1" vertex="1">
          <mxGeometry x="235" y="1855" width="140" height="20" as="geometry" />
        </mxCell>
        <mxCell id="i8wJTRRKYK57xuwCyLoE-149" style="edgeStyle=none;rounded=0;orthogonalLoop=1;jettySize=auto;html=1;exitX=1;exitY=0;exitDx=0;exitDy=0;" parent="1" source="i8wJTRRKYK57xuwCyLoE-150" target="i8wJTRRKYK57xuwCyLoE-155" edge="1">
          <mxGeometry relative="1" as="geometry" />
        </mxCell>
        <mxCell id="i8wJTRRKYK57xuwCyLoE-150" value="&lt;span style=&quot;font-size: 8px&quot;&gt;ДЛЯ ПЕРВЫХ ДВУХ ВКЛАДОК&lt;/span&gt;" style="rounded=1;whiteSpace=wrap;html=1;" parent="1" vertex="1">
          <mxGeometry x="210" y="1720" width="155" height="20" as="geometry" />
        </mxCell>
        <mxCell id="i8wJTRRKYK57xuwCyLoE-151" value="&lt;font style=&quot;line-height: 60% ; font-size: 8px&quot;&gt;1. Добавить выбор Размер: СТД или РГ. по умлчани. СТД ,если СТД то в бланк попадать не будет&lt;br&gt;&lt;br&gt;&lt;/font&gt;" style="whiteSpace=wrap;html=1;fillColor=#ffe6cc;strokeColor=#d79b00;align=left;" parent="1" vertex="1">
          <mxGeometry x="440" y="1830" width="150" height="70" as="geometry" />
        </mxCell>
        <mxCell id="i8wJTRRKYK57xuwCyLoE-152" style="edgeStyle=none;rounded=0;orthogonalLoop=1;jettySize=auto;html=1;exitX=1;exitY=0.5;exitDx=0;exitDy=0;" parent="1" source="i8wJTRRKYK57xuwCyLoE-153" target="i8wJTRRKYK57xuwCyLoE-154" edge="1">
          <mxGeometry relative="1" as="geometry" />
        </mxCell>
        <mxCell id="i8wJTRRKYK57xuwCyLoE-153" value="&lt;span style=&quot;font-size: 8px&quot;&gt;ДЛЯ ВСЕХ ВКЛАДОК ВКЛЮЧАЯ ГОТОВЫЕ ШТОРЫ&lt;/span&gt;" style="rounded=1;whiteSpace=wrap;html=1;" parent="1" vertex="1">
          <mxGeometry x="175" y="1580" width="200" height="20" as="geometry" />
        </mxCell>
        <mxCell id="i8wJTRRKYK57xuwCyLoE-154" value="&lt;div style=&quot;text-align: left&quot;&gt;&lt;span style=&quot;font-size: 8px&quot;&gt;&lt;br&gt;&lt;/span&gt;&lt;/div&gt;&lt;div style=&quot;text-align: left&quot;&gt;&lt;span style=&quot;font-size: 8px&quot;&gt;ЭТИ ПУНКТЫ С HTML РАЗМЕТКОЙ&lt;/span&gt;&lt;/div&gt;&lt;div style=&quot;text-align: left&quot;&gt;&lt;span style=&quot;font-size: 8px&quot;&gt;1. Сделать Select наценка от 15% до 100% все вкладки кратны 5%&lt;/span&gt;&lt;/div&gt;&lt;div style=&quot;text-align: left&quot;&gt;&lt;span style=&quot;font-size: 8px&quot;&gt;2. сделать конвертер валют с доллара на гривну . Клиент вводит курс долара в гривнах ему выхает цену. Просто цена умножается на то что он ввел&lt;/span&gt;&lt;/div&gt;" style="whiteSpace=wrap;html=1;fillColor=#d5e8d4;strokeColor=#82b366;" parent="1" vertex="1">
          <mxGeometry x="415" y="1530" width="335" height="80" as="geometry" />
        </mxCell>
        <mxCell id="i8wJTRRKYK57xuwCyLoE-155" value="&lt;div style=&quot;text-align: left&quot;&gt;&lt;span style=&quot;font-size: 8px&quot;&gt;1. Не считать площадь меньше 0.7&amp;nbsp;&lt;/span&gt;&lt;/div&gt;&lt;div style=&quot;text-align: left&quot;&gt;&lt;span style=&quot;font-size: 8px&quot;&gt;2. Добавить тип управлениия как у вертикальных , типо: Т1 , т2 итд&lt;/span&gt;&lt;/div&gt;&lt;div style=&quot;text-align: left&quot;&gt;&lt;span style=&quot;font-size: 8px&quot;&gt;3. В Бел / Кор меняется цена. Если выбран коричневый то к цене добавляется +1 , +2 , +3 , +4&lt;/span&gt;&lt;br style=&quot;font-size: 8px&quot;&gt;&lt;/div&gt;" style="whiteSpace=wrap;html=1;fillColor=#dae8fc;strokeColor=#6c8ebf;" parent="1" vertex="1">
          <mxGeometry x="420" y="1670" width="145" height="100" as="geometry" />
        </mxCell>
        <mxCell id="i8wJTRRKYK57xuwCyLoE-156" style="edgeStyle=none;rounded=0;orthogonalLoop=1;jettySize=auto;html=1;exitX=1;exitY=0.25;exitDx=0;exitDy=0;" parent="1" source="i8wJTRRKYK57xuwCyLoE-157" target="i8wJTRRKYK57xuwCyLoE-158" edge="1">
          <mxGeometry relative="1" as="geometry" />
        </mxCell>
        <mxCell id="i8wJTRRKYK57xuwCyLoE-157" value="&lt;span style=&quot;font-size: 8px&quot;&gt;СИСТЕМА ФИКСАЦИИ ДЛЯ КОЛОНОК ОТКРЫТОГО ТИПА КРОМЕ ФАЛШ ШТОР&lt;/span&gt;" style="rounded=1;whiteSpace=wrap;html=1;" parent="1" vertex="1">
          <mxGeometry x="60" y="1960" width="330" height="20" as="geometry" />
        </mxCell>
        <mxCell id="i8wJTRRKYK57xuwCyLoE-158" value="&lt;font style=&quot;line-height: 60% ; font-size: 8px&quot;&gt;1. Выбор системы фиксации, Добавить radio &quot;без фиксации&quot;, по умолчанию идет это radio. За магнидную фиксацию досчитывается 0.9 дол за коплект.(прибавляется к цене)&lt;br&gt;&lt;br&gt;Цены на Направлющую струну:&lt;br&gt;РУЛ ШТОРЫ: Compact, Mini Standard = 0.9 дол, Maximus = 2.5 дол&lt;br&gt;ДЕНЬ НОЧЬ: Compact, Mini Standard = 1.2 дол, Maximus = 3.0 дол&lt;br&gt;&lt;br&gt;&lt;br&gt;&lt;/font&gt;" style="whiteSpace=wrap;html=1;fillColor=#d5e8d4;strokeColor=#82b366;align=left;" parent="1" vertex="1">
          <mxGeometry x="440" y="1920" width="270" height="120" as="geometry" />
        </mxCell>
        <mxCell id="i8wJTRRKYK57xuwCyLoE-159" value="&lt;font style=&quot;line-height: 60% ; font-size: 8px&quot;&gt;1. При выборе системы фиксации можно выбрать только &quot;Без фиксации&quot;.&lt;br&gt;Возможно даже полностью убрать выбор системы фиксации.&lt;br&gt;&lt;/font&gt;" style="whiteSpace=wrap;html=1;fillColor=#e1d5e7;strokeColor=#9673a6;align=left;" parent="1" vertex="1">
          <mxGeometry x="435" y="2080" width="150" height="70" as="geometry" />
        </mxCell>
        <mxCell id="i8wJTRRKYK57xuwCyLoE-160" style="edgeStyle=none;rounded=0;orthogonalLoop=1;jettySize=auto;html=1;exitX=1;exitY=0.5;exitDx=0;exitDy=0;" parent="1" source="i8wJTRRKYK57xuwCyLoE-161" target="i8wJTRRKYK57xuwCyLoE-159" edge="1">
          <mxGeometry relative="1" as="geometry" />
        </mxCell>
        <mxCell id="i8wJTRRKYK57xuwCyLoE-161" value="&lt;span style=&quot;font-size: 8px&quot;&gt;СИСТЕМА ФИКСАЦИИ ДЛЯ ФАЛЬШ ШТОР И ЗАКРЫТОГО ТИПА&lt;/span&gt;" style="rounded=1;whiteSpace=wrap;html=1;" parent="1" vertex="1">
          <mxGeometry x="55" y="2115" width="330" height="20" as="geometry" />
        </mxCell>
        <mxCell id="i8wJTRRKYK57xuwCyLoE-162" style="edgeStyle=none;rounded=0;orthogonalLoop=1;jettySize=auto;html=1;exitX=1;exitY=0.5;exitDx=0;exitDy=0;" parent="1" source="i8wJTRRKYK57xuwCyLoE-163" target="i8wJTRRKYK57xuwCyLoE-164" edge="1">
          <mxGeometry relative="1" as="geometry" />
        </mxCell>
        <mxCell id="i8wJTRRKYK57xuwCyLoE-163" value="&lt;font style=&quot;font-size: 8px&quot;&gt;ТОЛЬКО&amp;nbsp; ДЛЯ UNI Плоскю Напралю&lt;/font&gt;" style="rounded=1;whiteSpace=wrap;html=1;" parent="1" vertex="1">
          <mxGeometry x="175" y="2662.5" width="205" height="20" as="geometry" />
        </mxCell>
        <mxCell id="i8wJTRRKYK57xuwCyLoE-164" value="&lt;font style=&quot;line-height: 60% ; font-size: 8px&quot;&gt;1.Добавить вторую ширину (input) &quot;Ширина стекла&quot;. Эта ширина не на что не влияет, а просто добавляется в бланк к основной ширине через дробь. Текст основной ширины изменить на &quot;Ширина ребра&quot;&lt;br&gt;2. Дабавить radio или select Доп скот с пунктами:Без скотча(по умолчанию) и Доп. скотч.&lt;br&gt;Если выбран пункт Доп. скотч то за каждый метр высоты к цене будет добавляться 0.8 дол&lt;br&gt;&lt;br&gt;&lt;/font&gt;" style="whiteSpace=wrap;html=1;fillColor=#dae8fc;strokeColor=#6c8ebf;align=left;" parent="1" vertex="1">
          <mxGeometry x="445" y="2602.5" width="210" height="140" as="geometry" />
        </mxCell>
        <mxCell id="i8wJTRRKYK57xuwCyLoE-165" style="edgeStyle=none;rounded=0;orthogonalLoop=1;jettySize=auto;html=1;exitX=1;exitY=0.25;exitDx=0;exitDy=0;" parent="1" source="i8wJTRRKYK57xuwCyLoE-167" target="i8wJTRRKYK57xuwCyLoE-168" edge="1">
          <mxGeometry relative="1" as="geometry" />
        </mxCell>
        <mxCell id="i8wJTRRKYK57xuwCyLoE-166" style="edgeStyle=none;rounded=0;orthogonalLoop=1;jettySize=auto;html=1;exitX=1;exitY=0.75;exitDx=0;exitDy=0;" parent="1" source="i8wJTRRKYK57xuwCyLoE-167" target="i8wJTRRKYK57xuwCyLoE-169" edge="1">
          <mxGeometry relative="1" as="geometry" />
        </mxCell>
        <mxCell id="i8wJTRRKYK57xuwCyLoE-167" value="&lt;font style=&quot;font-size: 8px&quot;&gt;ТОЛЬКО ДЛЯ COMPACT&amp;nbsp;&lt;/font&gt;" style="rounded=1;whiteSpace=wrap;html=1;" parent="1" vertex="1">
          <mxGeometry x="175" y="2842.5" width="205" height="20" as="geometry" />
        </mxCell>
        <mxCell id="i8wJTRRKYK57xuwCyLoE-168" value="&lt;span style=&quot;font-size: 8px&quot;&gt;1. Во владве ДЕНЬ НОЧЬ&amp;nbsp; поменять название на EcoCompact&lt;/span&gt;" style="whiteSpace=wrap;html=1;align=left;fillColor=#fff2cc;strokeColor=#d6b656;" parent="1" vertex="1">
          <mxGeometry x="435" y="2782.5" width="120" height="60" as="geometry" />
        </mxCell>
        <mxCell id="i8wJTRRKYK57xuwCyLoE-169" value="&lt;span style=&quot;font-size: 8px&quot;&gt;1.Разделить эти две системы. У них просто одинаковые расценки.&lt;/span&gt;" style="whiteSpace=wrap;html=1;align=left;fillColor=#dae8fc;strokeColor=#6c8ebf;" parent="1" vertex="1">
          <mxGeometry x="435" y="2862.5" width="120" height="60" as="geometry" />
        </mxCell>
        <mxCell id="i8wJTRRKYK57xuwCyLoE-170" style="edgeStyle=none;rounded=0;orthogonalLoop=1;jettySize=auto;html=1;exitX=1;exitY=0.25;exitDx=0;exitDy=0;entryX=0;entryY=0.5;entryDx=0;entryDy=0;" parent="1" source="i8wJTRRKYK57xuwCyLoE-171" target="i8wJTRRKYK57xuwCyLoE-169" edge="1">
          <mxGeometry relative="1" as="geometry" />
        </mxCell>
        <mxCell id="i8wJTRRKYK57xuwCyLoE-171" value="&lt;font style=&quot;font-size: 8px&quot;&gt;ТОЛЬКО ДЛЯ ФАЛШ ШТОР&lt;/font&gt;" style="rounded=1;whiteSpace=wrap;html=1;" parent="1" vertex="1">
          <mxGeometry x="177.5" y="2902.5" width="205" height="20" as="geometry" />
        </mxCell>
        <mxCell id="i8wJTRRKYK57xuwCyLoE-172" style="edgeStyle=none;rounded=0;orthogonalLoop=1;jettySize=auto;html=1;exitX=1;exitY=0.5;exitDx=0;exitDy=0;entryX=0;entryY=0.5;entryDx=0;entryDy=0;" parent="1" source="i8wJTRRKYK57xuwCyLoE-173" target="i8wJTRRKYK57xuwCyLoE-174" edge="1">
          <mxGeometry relative="1" as="geometry" />
        </mxCell>
        <mxCell id="i8wJTRRKYK57xuwCyLoE-173" value="&lt;span style=&quot;font-size: 8px&quot;&gt;ДЛЯ ВСЕХ КОЛОНОК КРОМЕ ФАЛШ ШТОР&lt;/span&gt;" style="rounded=1;whiteSpace=wrap;html=1;" parent="1" vertex="1">
          <mxGeometry x="200" y="2250" width="190" height="20" as="geometry" />
        </mxCell>
        <mxCell id="i8wJTRRKYK57xuwCyLoE-174" value="&lt;font style=&quot;font-size: 8px ; line-height: 80%&quot;&gt;1. Дабавить radio или select Груз цепи с пунктами Без цепи(по умолчманию) и груз цепи .&lt;br&gt;Груз цепи стоит 0.2 дол / штука. Добавляется ко всем кроме &quot;Фалш шторы&quot;&lt;br&gt;&lt;br&gt;&lt;/font&gt;" style="whiteSpace=wrap;html=1;fillColor=#d5e8d4;strokeColor=#82b366;align=left;" parent="1" vertex="1">
          <mxGeometry x="430" y="2217.5" width="280" height="85" as="geometry" />
        </mxCell>
        <mxCell id="i8wJTRRKYK57xuwCyLoE-175" style="edgeStyle=none;rounded=0;orthogonalLoop=1;jettySize=auto;html=1;exitX=1;exitY=0.5;exitDx=0;exitDy=0;" parent="1" source="i8wJTRRKYK57xuwCyLoE-176" target="i8wJTRRKYK57xuwCyLoE-177" edge="1">
          <mxGeometry relative="1" as="geometry" />
        </mxCell>
        <mxCell id="i8wJTRRKYK57xuwCyLoE-176" value="&lt;span style=&quot;font-size: 8px&quot;&gt;ФИКСАТОР ЦЕПИ ДЛЯ ВСЕХ КОЛОНОК КРОМЕ ФАЛШ ШТОР ,STANDARD И MAXIMUS&lt;/span&gt;" style="rounded=1;whiteSpace=wrap;html=1;" parent="1" vertex="1">
          <mxGeometry x="40" y="2380" width="345" height="20" as="geometry" />
        </mxCell>
        <mxCell id="i8wJTRRKYK57xuwCyLoE-177" value="&lt;font style=&quot;font-size: 8px ; line-height: 80%&quot;&gt;1/&amp;nbsp; Дабавить radio или select фиксатор цепи(фикс цепи) с пунктами Без цепи(по умолчманию) и фикс. цепи&amp;nbsp; .&lt;br&gt;Фикс. цепи стоит 0.2 дол / штука. Добавляется ко всем кроме &quot;Фалш шторы&quot;, standard и maximus&amp;nbsp;&lt;br&gt;&lt;/font&gt;" style="whiteSpace=wrap;html=1;fillColor=#d5e8d4;strokeColor=#82b366;align=left;" parent="1" vertex="1">
          <mxGeometry x="420" y="2338" width="280" height="85" as="geometry" />
        </mxCell>
        <mxCell id="i8wJTRRKYK57xuwCyLoE-178" style="edgeStyle=none;rounded=0;orthogonalLoop=1;jettySize=auto;html=1;exitX=1;exitY=0.5;exitDx=0;exitDy=0;" parent="1" source="i8wJTRRKYK57xuwCyLoE-179" target="i8wJTRRKYK57xuwCyLoE-180" edge="1">
          <mxGeometry relative="1" as="geometry" />
        </mxCell>
        <mxCell id="i8wJTRRKYK57xuwCyLoE-179" value="&lt;span style=&quot;font-size: 8px&quot;&gt;ФИКСАТОР ЦЕПИ ТОЛЬКО ДЛЯ ,STANDARD И MAXIMUS&lt;/span&gt;" style="rounded=1;whiteSpace=wrap;html=1;" parent="1" vertex="1">
          <mxGeometry x="80" y="2490" width="305" height="20" as="geometry" />
        </mxCell>
        <mxCell id="i8wJTRRKYK57xuwCyLoE-180" value="&lt;font style=&quot;font-size: 8px ; line-height: 80%&quot;&gt;1.но К колонками&amp;nbsp;standard и maximus добавляется фиксатор цепи униваерсальный (фикс цепи универс) стоимость 0.2 дол . тот же принцып что и во втором пункте.&lt;br&gt;&lt;/font&gt;" style="whiteSpace=wrap;html=1;fillColor=#d5e8d4;strokeColor=#82b366;align=left;" parent="1" vertex="1">
          <mxGeometry x="435" y="2470" width="280" height="72.5" as="geometry" />
        </mxCell>
        <mxCell id="i8wJTRRKYK57xuwCyLoE-181" value="&lt;font style=&quot;line-height: 60% ; font-size: 8px&quot;&gt;РАСЦЕНКИ В ЭТОМ ПУНКТЕ НЕ ТОЧНЫЕ И ТАКЖЕ КЛИЕНТ НЕ ПОЛНОСТЬЮ УВЕРЕН НУЖНА ЭТА ШТУКА ИЛИ НЕТ. ТАК ЖЕ У СИСТЕМЫ STANDARD БУДУТ ДРУГИЕ ЦЕНЫ&lt;br&gt;1. Добавить select или radio Способ управления: Цепь(по умолчанию) и Мотор .&lt;br&gt;Если выбран Цепь то ничего не попадает в бланк и цена не меняется .&amp;nbsp;&lt;br&gt;Если выбран Мотор то в бланк добавляется Мот. К цене за мотор добавляется 85дол. Так же при выборе Мотор появляются еще три варианта выбора пультов: 1 канал 24дол, 2 канала 26 дол и 5 каналов 30дол&amp;nbsp;&lt;br&gt;&lt;br&gt;&lt;br&gt;&lt;/font&gt;" style="whiteSpace=wrap;html=1;fillColor=#e1d5e7;strokeColor=#9673a6;align=left;" parent="1" vertex="1">
          <mxGeometry x="437.5" y="2960" width="265" height="180" as="geometry" />
        </mxCell>
        <mxCell id="i8wJTRRKYK57xuwCyLoE-182" style="edgeStyle=none;rounded=0;orthogonalLoop=1;jettySize=auto;html=1;exitX=1;exitY=0.5;exitDx=0;exitDy=0;" parent="1" source="i8wJTRRKYK57xuwCyLoE-183" target="i8wJTRRKYK57xuwCyLoE-181" edge="1">
          <mxGeometry relative="1" as="geometry" />
        </mxCell>
        <mxCell id="i8wJTRRKYK57xuwCyLoE-183" value="&lt;span style=&quot;font-size: 8px&quot;&gt;ДЛЯ СИСТЕМЫ MINI И ДВУХ СИТСЕМ ЗАКРЫТОГО ТИПА&lt;/span&gt;" style="rounded=1;whiteSpace=wrap;html=1;" parent="1" vertex="1">
          <mxGeometry x="160" y="3050" width="230" height="20" as="geometry" />
        </mxCell>
        <mxCell id="i8wJTRRKYK57xuwCyLoE-201" style="edgeStyle=none;rounded=0;orthogonalLoop=1;jettySize=auto;html=1;exitX=1;exitY=0.5;exitDx=0;exitDy=0;entryX=0;entryY=0.5;entryDx=0;entryDy=0;endArrow=none;endFill=0;" parent="1" target="i8wJTRRKYK57xuwCyLoE-205" edge="1">
          <mxGeometry relative="1" as="geometry">
            <mxPoint x="1042" y="1720" as="sourcePoint" />
          </mxGeometry>
        </mxCell>
        <mxCell id="i8wJTRRKYK57xuwCyLoE-242" style="edgeStyle=orthogonalEdgeStyle;rounded=0;orthogonalLoop=1;jettySize=auto;html=1;exitX=0.5;exitY=0;exitDx=0;exitDy=0;entryX=0.5;entryY=0;entryDx=0;entryDy=0;" parent="1" source="i8wJTRRKYK57xuwCyLoE-203" target="i8wJTRRKYK57xuwCyLoE-209" edge="1">
          <mxGeometry relative="1" as="geometry" />
        </mxCell>
        <mxCell id="i8wJTRRKYK57xuwCyLoE-247" style="edgeStyle=none;rounded=0;orthogonalLoop=1;jettySize=auto;html=1;exitX=0.5;exitY=1;exitDx=0;exitDy=0;fillColor=#d5e8d4;strokeColor=#82b366;" parent="1" source="i8wJTRRKYK57xuwCyLoE-203" target="i8wJTRRKYK57xuwCyLoE-246" edge="1">
          <mxGeometry relative="1" as="geometry" />
        </mxCell>
        <mxCell id="i8wJTRRKYK57xuwCyLoE-252" style="edgeStyle=none;rounded=0;orthogonalLoop=1;jettySize=auto;html=1;exitX=0.75;exitY=1;exitDx=0;exitDy=0;gradientColor=#ea6b66;fillColor=#f8cecc;strokeColor=#b85450;" parent="1" source="i8wJTRRKYK57xuwCyLoE-203" target="i8wJTRRKYK57xuwCyLoE-251" edge="1">
          <mxGeometry relative="1" as="geometry" />
        </mxCell>
        <mxCell id="i8wJTRRKYK57xuwCyLoE-260" style="edgeStyle=none;rounded=0;orthogonalLoop=1;jettySize=auto;html=1;exitX=0.75;exitY=1;exitDx=0;exitDy=0;fillColor=#76608a;strokeColor=#432D57;" parent="1" source="i8wJTRRKYK57xuwCyLoE-203" target="i8wJTRRKYK57xuwCyLoE-259" edge="1">
          <mxGeometry relative="1" as="geometry" />
        </mxCell>
        <mxCell id="i8wJTRRKYK57xuwCyLoE-203" value="&lt;font style=&quot;font-size: 8px&quot;&gt;compact&lt;/font&gt;" style="rounded=1;whiteSpace=wrap;html=1;" parent="1" vertex="1">
          <mxGeometry x="1002" y="1710" width="40" height="20" as="geometry" />
        </mxCell>
        <mxCell id="i8wJTRRKYK57xuwCyLoE-204" style="edgeStyle=none;rounded=0;orthogonalLoop=1;jettySize=auto;html=1;exitX=1;exitY=0.5;exitDx=0;exitDy=0;entryX=0;entryY=0.5;entryDx=0;entryDy=0;endArrow=none;endFill=0;" parent="1" source="i8wJTRRKYK57xuwCyLoE-205" target="i8wJTRRKYK57xuwCyLoE-215" edge="1">
          <mxGeometry relative="1" as="geometry" />
        </mxCell>
        <mxCell id="i8wJTRRKYK57xuwCyLoE-205" value="&lt;font style=&quot;font-size: 8px&quot;&gt;фалш шторы&lt;/font&gt;" style="rounded=1;whiteSpace=wrap;html=1;" parent="1" vertex="1">
          <mxGeometry x="1072" y="1710" width="60" height="20" as="geometry" />
        </mxCell>
        <mxCell id="i8wJTRRKYK57xuwCyLoE-206" style="edgeStyle=none;rounded=0;orthogonalLoop=1;jettySize=auto;html=1;exitX=1;exitY=0.5;exitDx=0;exitDy=0;entryX=0;entryY=0.5;entryDx=0;entryDy=0;endArrow=none;endFill=0;" parent="1" source="i8wJTRRKYK57xuwCyLoE-207" target="i8wJTRRKYK57xuwCyLoE-209" edge="1">
          <mxGeometry relative="1" as="geometry" />
        </mxCell>
        <mxCell id="i8wJTRRKYK57xuwCyLoE-249" style="edgeStyle=none;rounded=0;orthogonalLoop=1;jettySize=auto;html=1;exitX=0.75;exitY=1;exitDx=0;exitDy=0;fillColor=#d5e8d4;strokeColor=#82b366;" parent="1" source="i8wJTRRKYK57xuwCyLoE-207" target="i8wJTRRKYK57xuwCyLoE-246" edge="1">
          <mxGeometry relative="1" as="geometry" />
        </mxCell>
        <mxCell id="i8wJTRRKYK57xuwCyLoE-255" style="edgeStyle=none;rounded=0;orthogonalLoop=1;jettySize=auto;html=1;exitX=0.5;exitY=1;exitDx=0;exitDy=0;gradientColor=#ea6b66;fillColor=#f8cecc;strokeColor=#b85450;" parent="1" source="i8wJTRRKYK57xuwCyLoE-207" target="i8wJTRRKYK57xuwCyLoE-251" edge="1">
          <mxGeometry relative="1" as="geometry" />
        </mxCell>
        <mxCell id="i8wJTRRKYK57xuwCyLoE-267" style="edgeStyle=none;rounded=0;orthogonalLoop=1;jettySize=auto;html=1;exitX=1;exitY=1;exitDx=0;exitDy=0;startArrow=none;startFill=0;gradientColor=#ffd966;fillColor=#fff2cc;strokeColor=#d6b656;" parent="1" source="i8wJTRRKYK57xuwCyLoE-207" target="i8wJTRRKYK57xuwCyLoE-264" edge="1">
          <mxGeometry relative="1" as="geometry" />
        </mxCell>
        <mxCell id="i8wJTRRKYK57xuwCyLoE-207" value="&lt;font style=&quot;font-size: 8px&quot;&gt;STANDARTD&lt;/font&gt;" style="rounded=1;whiteSpace=wrap;html=1;" parent="1" vertex="1">
          <mxGeometry x="1212" y="1710" width="50" height="20" as="geometry" />
        </mxCell>
        <mxCell id="i8wJTRRKYK57xuwCyLoE-208" style="edgeStyle=none;rounded=0;orthogonalLoop=1;jettySize=auto;html=1;exitX=1;exitY=0.5;exitDx=0;exitDy=0;entryX=0;entryY=0.5;entryDx=0;entryDy=0;endArrow=none;endFill=0;" parent="1" source="i8wJTRRKYK57xuwCyLoE-209" target="i8wJTRRKYK57xuwCyLoE-212" edge="1">
          <mxGeometry relative="1" as="geometry" />
        </mxCell>
        <mxCell id="i8wJTRRKYK57xuwCyLoE-250" style="edgeStyle=none;rounded=0;orthogonalLoop=1;jettySize=auto;html=1;exitX=0.75;exitY=1;exitDx=0;exitDy=0;fillColor=#d5e8d4;strokeColor=#82b366;" parent="1" source="i8wJTRRKYK57xuwCyLoE-209" target="i8wJTRRKYK57xuwCyLoE-246" edge="1">
          <mxGeometry relative="1" as="geometry" />
        </mxCell>
        <mxCell id="i8wJTRRKYK57xuwCyLoE-256" style="edgeStyle=none;rounded=0;orthogonalLoop=1;jettySize=auto;html=1;exitX=0.5;exitY=1;exitDx=0;exitDy=0;gradientColor=#ea6b66;fillColor=#f8cecc;strokeColor=#b85450;" parent="1" source="i8wJTRRKYK57xuwCyLoE-209" target="i8wJTRRKYK57xuwCyLoE-251" edge="1">
          <mxGeometry relative="1" as="geometry" />
        </mxCell>
        <mxCell id="i8wJTRRKYK57xuwCyLoE-266" style="edgeStyle=none;rounded=0;orthogonalLoop=1;jettySize=auto;html=1;exitX=1;exitY=1;exitDx=0;exitDy=0;fillColor=#fff2cc;strokeColor=#d6b656;startArrow=none;startFill=0;gradientColor=#ffd966;" parent="1" source="i8wJTRRKYK57xuwCyLoE-209" target="i8wJTRRKYK57xuwCyLoE-264" edge="1">
          <mxGeometry relative="1" as="geometry" />
        </mxCell>
        <mxCell id="i8wJTRRKYK57xuwCyLoE-209" value="&lt;font style=&quot;font-size: 8px&quot;&gt;MAXIMUS&lt;/font&gt;" style="rounded=1;whiteSpace=wrap;html=1;" parent="1" vertex="1">
          <mxGeometry x="1292" y="1710" width="40" height="20" as="geometry" />
        </mxCell>
        <mxCell id="i8wJTRRKYK57xuwCyLoE-210" style="edgeStyle=orthogonalEdgeStyle;rounded=0;orthogonalLoop=1;jettySize=auto;html=1;exitX=1;exitY=0.5;exitDx=0;exitDy=0;entryX=0;entryY=0.5;entryDx=0;entryDy=0;endArrow=none;endFill=0;" parent="1" source="i8wJTRRKYK57xuwCyLoE-212" target="i8wJTRRKYK57xuwCyLoE-213" edge="1">
          <mxGeometry relative="1" as="geometry" />
        </mxCell>
        <mxCell id="i8wJTRRKYK57xuwCyLoE-211" style="edgeStyle=orthogonalEdgeStyle;rounded=0;orthogonalLoop=1;jettySize=auto;html=1;exitX=0.5;exitY=0;exitDx=0;exitDy=0;entryX=0.5;entryY=0;entryDx=0;entryDy=0;endArrow=none;endFill=0;" parent="1" source="i8wJTRRKYK57xuwCyLoE-212" target="i8wJTRRKYK57xuwCyLoE-213" edge="1">
          <mxGeometry relative="1" as="geometry" />
        </mxCell>
        <mxCell id="i8wJTRRKYK57xuwCyLoE-257" style="edgeStyle=none;rounded=0;orthogonalLoop=1;jettySize=auto;html=1;exitX=0.5;exitY=1;exitDx=0;exitDy=0;gradientColor=#ea6b66;fillColor=#f8cecc;strokeColor=#b85450;" parent="1" source="i8wJTRRKYK57xuwCyLoE-212" target="i8wJTRRKYK57xuwCyLoE-251" edge="1">
          <mxGeometry relative="1" as="geometry" />
        </mxCell>
        <mxCell id="i8wJTRRKYK57xuwCyLoE-262" style="edgeStyle=none;rounded=0;orthogonalLoop=1;jettySize=auto;html=1;exitX=0.25;exitY=1;exitDx=0;exitDy=0;entryX=0.458;entryY=-0.027;entryDx=0;entryDy=0;entryPerimeter=0;fillColor=#76608a;strokeColor=#432D57;" parent="1" source="i8wJTRRKYK57xuwCyLoE-212" target="i8wJTRRKYK57xuwCyLoE-259" edge="1">
          <mxGeometry relative="1" as="geometry" />
        </mxCell>
        <mxCell id="i8wJTRRKYK57xuwCyLoE-212" value="&lt;font style=&quot;font-size: 8px&quot;&gt;UNI Плоскю Напралю&lt;/font&gt;" style="rounded=1;whiteSpace=wrap;html=1;" parent="1" vertex="1">
          <mxGeometry x="1362" y="1710" width="90" height="20" as="geometry" />
        </mxCell>
        <mxCell id="i8wJTRRKYK57xuwCyLoE-258" style="edgeStyle=none;rounded=0;orthogonalLoop=1;jettySize=auto;html=1;exitX=0.5;exitY=1;exitDx=0;exitDy=0;gradientColor=#ea6b66;fillColor=#f8cecc;strokeColor=#b85450;" parent="1" source="i8wJTRRKYK57xuwCyLoE-213" target="i8wJTRRKYK57xuwCyLoE-251" edge="1">
          <mxGeometry relative="1" as="geometry" />
        </mxCell>
        <mxCell id="i8wJTRRKYK57xuwCyLoE-263" style="edgeStyle=none;rounded=0;orthogonalLoop=1;jettySize=auto;html=1;exitX=0.75;exitY=1;exitDx=0;exitDy=0;fillColor=#76608a;strokeColor=#432D57;" parent="1" source="i8wJTRRKYK57xuwCyLoE-213" target="i8wJTRRKYK57xuwCyLoE-259" edge="1">
          <mxGeometry relative="1" as="geometry" />
        </mxCell>
        <mxCell id="i8wJTRRKYK57xuwCyLoE-213" value="&lt;font style=&quot;font-size: 8px&quot;&gt;UNI П-обрю Направл.&lt;/font&gt;" style="rounded=1;whiteSpace=wrap;html=1;" parent="1" vertex="1">
          <mxGeometry x="1482" y="1710" width="100" height="20" as="geometry" />
        </mxCell>
        <mxCell id="i8wJTRRKYK57xuwCyLoE-214" style="edgeStyle=none;rounded=0;orthogonalLoop=1;jettySize=auto;html=1;exitX=1;exitY=0.5;exitDx=0;exitDy=0;entryX=0;entryY=0.5;entryDx=0;entryDy=0;endArrow=none;endFill=0;" parent="1" source="i8wJTRRKYK57xuwCyLoE-215" target="i8wJTRRKYK57xuwCyLoE-207" edge="1">
          <mxGeometry relative="1" as="geometry" />
        </mxCell>
        <mxCell id="i8wJTRRKYK57xuwCyLoE-215" value="&lt;font style=&quot;font-size: 8px&quot;&gt;MINI&lt;/font&gt;" style="rounded=1;whiteSpace=wrap;html=1;" parent="1" vertex="1">
          <mxGeometry x="1152" y="1710" width="30" height="20" as="geometry" />
        </mxCell>
        <mxCell id="i8wJTRRKYK57xuwCyLoE-235" style="edgeStyle=none;rounded=0;orthogonalLoop=1;jettySize=auto;html=1;exitX=0.25;exitY=1;exitDx=0;exitDy=0;fillColor=#dae8fc;strokeColor=#6c8ebf;" parent="1" source="i8wJTRRKYK57xuwCyLoE-216" target="i8wJTRRKYK57xuwCyLoE-233" edge="1">
          <mxGeometry relative="1" as="geometry" />
        </mxCell>
        <mxCell id="i8wJTRRKYK57xuwCyLoE-216" value="рулонные шторы" style="rounded=1;whiteSpace=wrap;html=1;" parent="1" vertex="1">
          <mxGeometry x="1045" y="1600" width="120" height="30" as="geometry" />
        </mxCell>
        <mxCell id="i8wJTRRKYK57xuwCyLoE-236" style="edgeStyle=none;rounded=0;orthogonalLoop=1;jettySize=auto;html=1;exitX=0.25;exitY=1;exitDx=0;exitDy=0;fillColor=#dae8fc;strokeColor=#6c8ebf;" parent="1" source="i8wJTRRKYK57xuwCyLoE-217" target="i8wJTRRKYK57xuwCyLoE-233" edge="1">
          <mxGeometry relative="1" as="geometry" />
        </mxCell>
        <mxCell id="i8wJTRRKYK57xuwCyLoE-217" value="День ночь" style="rounded=1;whiteSpace=wrap;html=1;" parent="1" vertex="1">
          <mxGeometry x="1240" y="1600" width="70" height="30" as="geometry" />
        </mxCell>
        <mxCell id="i8wJTRRKYK57xuwCyLoE-233" value="&lt;div style=&quot;text-align: left&quot;&gt;&lt;span style=&quot;font-size: 8px&quot;&gt;1. Добавить тип управлениия как у вертикальных , типо: Т1 , т2 итд&lt;/span&gt;&lt;br&gt;&lt;/div&gt;&lt;div style=&quot;text-align: left&quot;&gt;2. цвет бел/кор&lt;/div&gt;" style="whiteSpace=wrap;html=1;strokeColor=#6c8ebf;fillColor=#161719;labelBackgroundColor=#000000;fontColor=#F0F0F0;" parent="1" vertex="1">
          <mxGeometry x="1124.5" y="1540" width="145" height="40" as="geometry" />
        </mxCell>
        <mxCell id="i8wJTRRKYK57xuwCyLoE-237" value="&lt;font style=&quot;line-height: 60% ; font-size: 8px&quot;&gt;1. Добавить выбор Размер: СТД или РГ.&amp;nbsp;&lt;br&gt;&lt;/font&gt;" style="whiteSpace=wrap;html=1;strokeColor=#d79b00;align=left;fontColor=#F0F0F0;fillColor=#000000;" parent="1" vertex="1">
          <mxGeometry x="1335" y="1520" width="117" height="45" as="geometry" />
        </mxCell>
        <mxCell id="i8wJTRRKYK57xuwCyLoE-248" style="edgeStyle=none;rounded=0;orthogonalLoop=1;jettySize=auto;html=1;exitX=0.5;exitY=1;exitDx=0;exitDy=0;fillColor=#d5e8d4;strokeColor=#82b366;" parent="1" source="i8wJTRRKYK57xuwCyLoE-240" target="i8wJTRRKYK57xuwCyLoE-246" edge="1">
          <mxGeometry relative="1" as="geometry" />
        </mxCell>
        <mxCell id="i8wJTRRKYK57xuwCyLoE-254" style="edgeStyle=none;rounded=0;orthogonalLoop=1;jettySize=auto;html=1;exitX=0.5;exitY=1;exitDx=0;exitDy=0;gradientColor=#ea6b66;fillColor=#f8cecc;strokeColor=#b85450;" parent="1" source="i8wJTRRKYK57xuwCyLoE-240" target="i8wJTRRKYK57xuwCyLoE-251" edge="1">
          <mxGeometry relative="1" as="geometry" />
        </mxCell>
        <mxCell id="i8wJTRRKYK57xuwCyLoE-261" style="edgeStyle=none;rounded=0;orthogonalLoop=1;jettySize=auto;html=1;exitX=0.5;exitY=1;exitDx=0;exitDy=0;fillColor=#76608a;strokeColor=#432D57;" parent="1" source="i8wJTRRKYK57xuwCyLoE-240" target="i8wJTRRKYK57xuwCyLoE-259" edge="1">
          <mxGeometry relative="1" as="geometry" />
        </mxCell>
        <mxCell id="i8wJTRRKYK57xuwCyLoE-240" value="&lt;font style=&quot;font-size: 8px&quot;&gt;MINI&lt;/font&gt;" style="rounded=1;whiteSpace=wrap;html=1;" parent="1" vertex="1">
          <mxGeometry x="1152" y="1710" width="30" height="20" as="geometry" />
        </mxCell>
        <mxCell id="i8wJTRRKYK57xuwCyLoE-245" style="edgeStyle=none;rounded=0;orthogonalLoop=1;jettySize=auto;html=1;exitX=0.5;exitY=1;exitDx=0;exitDy=0;fillColor=#ffe6cc;strokeColor=#d79b00;" parent="1" source="i8wJTRRKYK57xuwCyLoE-243" target="i8wJTRRKYK57xuwCyLoE-237" edge="1">
          <mxGeometry relative="1" as="geometry" />
        </mxCell>
        <mxCell id="i8wJTRRKYK57xuwCyLoE-243" value="открытый тип" style="rounded=1;whiteSpace=wrap;html=1;" parent="1" vertex="1">
          <mxGeometry x="1100" y="1660" width="120" height="20" as="geometry" />
        </mxCell>
        <mxCell id="i8wJTRRKYK57xuwCyLoE-246" value="&lt;font style=&quot;line-height: 60% ; font-size: 8px&quot;&gt;1. Система фиксации:: Без фиксации или Магнитная или Направляющая струя&lt;br&gt;&lt;/font&gt;" style="whiteSpace=wrap;html=1;strokeColor=#314354;align=left;fontColor=#ffffff;fillColor=#0F0F0F;" parent="1" vertex="1">
          <mxGeometry x="1222" y="1817.5" width="160" height="47.5" as="geometry" />
        </mxCell>
        <mxCell id="i8wJTRRKYK57xuwCyLoE-251" value="&lt;font style=&quot;font-size: 8px ; line-height: 80%&quot;&gt;1. Груз цепи : Без цепи или Груз цепи&lt;br&gt;&lt;/font&gt;" style="whiteSpace=wrap;html=1;strokeColor=#b85450;align=left;fillColor=#0F0F0F;fontColor=#FFFFFF;gradientDirection=north;" parent="1" vertex="1">
          <mxGeometry x="944.5" y="1900" width="131" height="40" as="geometry" />
        </mxCell>
        <mxCell id="i8wJTRRKYK57xuwCyLoE-259" value="&lt;font style=&quot;font-size: 8px ; line-height: 80%&quot;&gt;1. Фиксатор цепи: Без фиксатора или фикс. цепи&lt;br&gt;&lt;/font&gt;" style="whiteSpace=wrap;html=1;align=left;fontColor=#ffffff;strokeColor=#6600CC;fillColor=#0D0D0D;" parent="1" vertex="1">
          <mxGeometry x="1201" y="1950" width="152" height="70" as="geometry" />
        </mxCell>
        <mxCell id="i8wJTRRKYK57xuwCyLoE-264" value="&lt;font style=&quot;font-size: 8px ; line-height: 80%&quot;&gt;1.Фиксатор цепи Универсальные: Без фиксатора или&amp;nbsp; фикс. цепи универс.&lt;br&gt;&lt;/font&gt;" style="whiteSpace=wrap;html=1;strokeColor=#36393d;align=left;fillColor=#101214;fontColor=#FFFFFF;" parent="1" vertex="1">
          <mxGeometry x="1400" y="1910" width="152" height="70" as="geometry" />
        </mxCell>
      </root>
    </mxGraphModel>
  </diagram>
</mxfile>
